G04*
G04 #@! TF.GenerationSoftware,Altium Limited,Altium Designer,20.0.9 (164)*
G04*
G04 Layer_Color=8388736*
%FSLAX25Y25*%
%MOIN*%
G70*
G01*
G75*
%ADD34R,0.04737X0.05131*%
%ADD35R,0.05131X0.04737*%
%ADD36R,0.04540X0.07296*%
%ADD37C,0.01181*%
G04:AMPARAMS|DCode=38|XSize=13.78mil|YSize=25.59mil|CornerRadius=2.95mil|HoleSize=0mil|Usage=FLASHONLY|Rotation=90.000|XOffset=0mil|YOffset=0mil|HoleType=Round|Shape=RoundedRectangle|*
%AMROUNDEDRECTD38*
21,1,0.01378,0.01968,0,0,90.0*
21,1,0.00787,0.02559,0,0,90.0*
1,1,0.00591,0.00984,0.00394*
1,1,0.00591,0.00984,-0.00394*
1,1,0.00591,-0.00984,-0.00394*
1,1,0.00591,-0.00984,0.00394*
%
%ADD38ROUNDEDRECTD38*%
G04:AMPARAMS|DCode=39|XSize=13.78mil|YSize=25.59mil|CornerRadius=4.43mil|HoleSize=0mil|Usage=FLASHONLY|Rotation=90.000|XOffset=0mil|YOffset=0mil|HoleType=Round|Shape=RoundedRectangle|*
%AMROUNDEDRECTD39*
21,1,0.01378,0.01673,0,0,90.0*
21,1,0.00492,0.02559,0,0,90.0*
1,1,0.00886,0.00837,0.00246*
1,1,0.00886,0.00837,-0.00246*
1,1,0.00886,-0.00837,-0.00246*
1,1,0.00886,-0.00837,0.00246*
%
%ADD39ROUNDEDRECTD39*%
%ADD40R,0.16548X0.18517*%
%ADD41O,0.03200X0.08800*%
G04:AMPARAMS|DCode=42|XSize=51.7mil|YSize=29.65mil|CornerRadius=9.41mil|HoleSize=0mil|Usage=FLASHONLY|Rotation=270.000|XOffset=0mil|YOffset=0mil|HoleType=Round|Shape=RoundedRectangle|*
%AMROUNDEDRECTD42*
21,1,0.05170,0.01083,0,0,270.0*
21,1,0.03287,0.02965,0,0,270.0*
1,1,0.01883,-0.00541,-0.01644*
1,1,0.01883,-0.00541,0.01644*
1,1,0.01883,0.00541,0.01644*
1,1,0.01883,0.00541,-0.01644*
%
%ADD42ROUNDEDRECTD42*%
%ADD43R,0.06706X0.03950*%
%ADD44R,0.06706X0.03792*%
%ADD45R,0.06706X0.03556*%
%ADD46R,0.06800X0.05800*%
%ADD47O,0.08280X0.03162*%
%ADD48O,0.02965X0.08871*%
%ADD49O,0.08871X0.02965*%
%ADD50C,0.16548*%
%ADD51C,0.20485*%
G04:AMPARAMS|DCode=52|XSize=86.74mil|YSize=106.42mil|CornerRadius=0mil|HoleSize=0mil|Usage=FLASHONLY|Rotation=83.076|XOffset=0mil|YOffset=0mil|HoleType=Round|Shape=Round|*
%AMOVALD52*
21,1,0.01968,0.08674,0.00000,0.00000,173.1*
1,1,0.08674,0.00977,-0.00119*
1,1,0.08674,-0.00977,0.00119*
%
%ADD52OVALD52*%

G04:AMPARAMS|DCode=53|XSize=86.74mil|YSize=106.42mil|CornerRadius=0mil|HoleSize=0mil|Usage=FLASHONLY|Rotation=55.384|XOffset=0mil|YOffset=0mil|HoleType=Round|Shape=Round|*
%AMOVALD53*
21,1,0.01968,0.08674,0.00000,0.00000,145.4*
1,1,0.08674,0.00810,-0.00559*
1,1,0.08674,-0.00810,0.00559*
%
%ADD53OVALD53*%

G04:AMPARAMS|DCode=54|XSize=86.74mil|YSize=106.42mil|CornerRadius=0mil|HoleSize=0mil|Usage=FLASHONLY|Rotation=110.768|XOffset=0mil|YOffset=0mil|HoleType=Round|Shape=Round|*
%AMOVALD54*
21,1,0.01968,0.08674,0.00000,0.00000,200.8*
1,1,0.08674,0.00920,0.00349*
1,1,0.08674,-0.00920,-0.00349*
%
%ADD54OVALD54*%

G04:AMPARAMS|DCode=55|XSize=86.74mil|YSize=106.42mil|CornerRadius=0mil|HoleSize=0mil|Usage=FLASHONLY|Rotation=138.460|XOffset=0mil|YOffset=0mil|HoleType=Round|Shape=Round|*
%AMOVALD55*
21,1,0.01968,0.08674,0.00000,0.00000,228.5*
1,1,0.08674,0.00653,0.00737*
1,1,0.08674,-0.00653,-0.00737*
%
%ADD55OVALD55*%

G04:AMPARAMS|DCode=56|XSize=86.74mil|YSize=106.42mil|CornerRadius=0mil|HoleSize=0mil|Usage=FLASHONLY|Rotation=166.152|XOffset=0mil|YOffset=0mil|HoleType=Round|Shape=Round|*
%AMOVALD56*
21,1,0.01968,0.08674,0.00000,0.00000,256.2*
1,1,0.08674,0.00236,0.00956*
1,1,0.08674,-0.00236,-0.00956*
%
%ADD56OVALD56*%

G04:AMPARAMS|DCode=57|XSize=86.74mil|YSize=106.42mil|CornerRadius=0mil|HoleSize=0mil|Usage=FLASHONLY|Rotation=193.848|XOffset=0mil|YOffset=0mil|HoleType=Round|Shape=Round|*
%AMOVALD57*
21,1,0.01968,0.08674,0.00000,0.00000,283.8*
1,1,0.08674,-0.00236,0.00956*
1,1,0.08674,0.00236,-0.00956*
%
%ADD57OVALD57*%

G04:AMPARAMS|DCode=58|XSize=86.74mil|YSize=106.42mil|CornerRadius=0mil|HoleSize=0mil|Usage=FLASHONLY|Rotation=221.540|XOffset=0mil|YOffset=0mil|HoleType=Round|Shape=Round|*
%AMOVALD58*
21,1,0.01968,0.08674,0.00000,0.00000,311.5*
1,1,0.08674,-0.00653,0.00737*
1,1,0.08674,0.00653,-0.00737*
%
%ADD58OVALD58*%

G04:AMPARAMS|DCode=59|XSize=86.74mil|YSize=106.42mil|CornerRadius=0mil|HoleSize=0mil|Usage=FLASHONLY|Rotation=249.232|XOffset=0mil|YOffset=0mil|HoleType=Round|Shape=Round|*
%AMOVALD59*
21,1,0.01968,0.08674,0.00000,0.00000,339.2*
1,1,0.08674,-0.00920,0.00349*
1,1,0.08674,0.00920,-0.00349*
%
%ADD59OVALD59*%

G04:AMPARAMS|DCode=60|XSize=86.74mil|YSize=106.42mil|CornerRadius=0mil|HoleSize=0mil|Usage=FLASHONLY|Rotation=276.924|XOffset=0mil|YOffset=0mil|HoleType=Round|Shape=Round|*
%AMOVALD60*
21,1,0.01968,0.08674,0.00000,0.00000,6.9*
1,1,0.08674,-0.00977,-0.00119*
1,1,0.08674,0.00977,0.00119*
%
%ADD60OVALD60*%

G04:AMPARAMS|DCode=61|XSize=86.74mil|YSize=106.42mil|CornerRadius=0mil|HoleSize=0mil|Usage=FLASHONLY|Rotation=304.616|XOffset=0mil|YOffset=0mil|HoleType=Round|Shape=Round|*
%AMOVALD61*
21,1,0.01968,0.08674,0.00000,0.00000,34.6*
1,1,0.08674,-0.00810,-0.00559*
1,1,0.08674,0.00810,0.00559*
%
%ADD61OVALD61*%

G04:AMPARAMS|DCode=62|XSize=86.74mil|YSize=106.42mil|CornerRadius=0mil|HoleSize=0mil|Usage=FLASHONLY|Rotation=332.308|XOffset=0mil|YOffset=0mil|HoleType=Round|Shape=Round|*
%AMOVALD62*
21,1,0.01968,0.08674,0.00000,0.00000,62.3*
1,1,0.08674,-0.00457,-0.00872*
1,1,0.08674,0.00457,0.00872*
%
%ADD62OVALD62*%

G04:AMPARAMS|DCode=63|XSize=86.74mil|YSize=106.42mil|CornerRadius=0mil|HoleSize=0mil|Usage=FLASHONLY|Rotation=27.692|XOffset=0mil|YOffset=0mil|HoleType=Round|Shape=Round|*
%AMOVALD63*
21,1,0.01968,0.08674,0.00000,0.00000,117.7*
1,1,0.08674,0.00457,-0.00872*
1,1,0.08674,-0.00457,0.00872*
%
%ADD63OVALD63*%

G04:AMPARAMS|DCode=64|XSize=86.74mil|YSize=106.42mil|CornerRadius=23.68mil|HoleSize=0mil|Usage=FLASHONLY|Rotation=0.000|XOffset=0mil|YOffset=0mil|HoleType=Round|Shape=RoundedRectangle|*
%AMROUNDEDRECTD64*
21,1,0.08674,0.05906,0,0,0.0*
21,1,0.03937,0.10642,0,0,0.0*
1,1,0.04737,0.01968,-0.02953*
1,1,0.04737,-0.01968,-0.02953*
1,1,0.04737,-0.01968,0.02953*
1,1,0.04737,0.01968,0.02953*
%
%ADD64ROUNDEDRECTD64*%
%ADD65C,0.05524*%
%ADD66C,0.06540*%
%ADD67R,0.07099X0.07099*%
%ADD68C,0.07099*%
%ADD69C,0.10642*%
%ADD70O,0.07887X0.05131*%
%ADD71R,0.07493X0.07493*%
%ADD72C,0.07493*%
%ADD73C,0.03800*%
G36*
X88521Y-152756D02*
X88572Y-152766D01*
X88622Y-152783D01*
X88669Y-152806D01*
X88713Y-152836D01*
X88752Y-152870D01*
X88787Y-152910D01*
X88816Y-152953D01*
X88839Y-153000D01*
X88856Y-153050D01*
X88866Y-153101D01*
X88869Y-153154D01*
Y-159846D01*
X88866Y-159899D01*
X88856Y-159950D01*
X88839Y-160000D01*
X88816Y-160047D01*
X88787Y-160090D01*
X88752Y-160130D01*
X88713Y-160164D01*
X88669Y-160194D01*
X88622Y-160217D01*
X88572Y-160234D01*
X88521Y-160244D01*
X88468Y-160247D01*
X84531D01*
X84479Y-160244D01*
X84428Y-160234D01*
X84378Y-160217D01*
X84331Y-160194D01*
X84288Y-160164D01*
X84248Y-160130D01*
X84214Y-160090D01*
X84184Y-160047D01*
X84161Y-160000D01*
X84144Y-159950D01*
X84134Y-159899D01*
X84131Y-159846D01*
Y-154335D01*
X84134Y-154282D01*
X84144Y-154231D01*
X84161Y-154181D01*
X84184Y-154134D01*
X84214Y-154091D01*
X84248Y-154051D01*
X85429Y-152870D01*
X85469Y-152836D01*
X85512Y-152806D01*
X85559Y-152783D01*
X85609Y-152766D01*
X85660Y-152756D01*
X85713Y-152753D01*
X85713D01*
D01*
X88468D01*
X88521Y-152756D01*
D02*
G37*
D34*
X144500Y60654D02*
D03*
Y67347D02*
D03*
X134500Y60807D02*
D03*
Y67500D02*
D03*
X124500Y60807D02*
D03*
Y67500D02*
D03*
X114500Y60807D02*
D03*
Y67500D02*
D03*
X-89900Y96846D02*
D03*
Y90153D02*
D03*
X-99900Y96846D02*
D03*
Y90153D02*
D03*
X104500Y39500D02*
D03*
Y32807D02*
D03*
X-1900Y-48846D02*
D03*
Y-42153D02*
D03*
X42900Y-35654D02*
D03*
Y-42347D02*
D03*
X32600Y-48846D02*
D03*
Y-42153D02*
D03*
X22600Y-48846D02*
D03*
Y-42153D02*
D03*
X12600Y-48846D02*
D03*
Y-42153D02*
D03*
X-17400Y-48846D02*
D03*
Y-42153D02*
D03*
X-27400Y-48846D02*
D03*
Y-42153D02*
D03*
X-37400Y-48846D02*
D03*
Y-42153D02*
D03*
X-47400Y-48846D02*
D03*
Y-42153D02*
D03*
D35*
X-79347Y-123100D02*
D03*
X-72654D02*
D03*
X82807Y-143000D02*
D03*
X89500D02*
D03*
X-144500Y-153500D02*
D03*
X-151193D02*
D03*
X-232000Y39500D02*
D03*
X-225307D02*
D03*
X-232000Y48000D02*
D03*
X-225307D02*
D03*
X-79347Y-115600D02*
D03*
X-72654D02*
D03*
X-158307Y-98000D02*
D03*
X-165000D02*
D03*
D36*
X118390Y1500D02*
D03*
X104610D02*
D03*
D37*
X86500Y-156500D02*
D03*
D38*
X81874Y-155516D02*
D03*
Y-157484D02*
D03*
Y-159453D02*
D03*
X91126D02*
D03*
Y-157484D02*
D03*
Y-155516D02*
D03*
Y-153547D02*
D03*
D39*
X81874D02*
D03*
D40*
X92500Y-115100D02*
D03*
Y-55100D02*
D03*
D41*
X12500Y-69000D02*
D03*
X17500D02*
D03*
X22500D02*
D03*
X27500D02*
D03*
X32500D02*
D03*
X37500D02*
D03*
X42500D02*
D03*
X47500D02*
D03*
Y-91000D02*
D03*
X42500D02*
D03*
X37500D02*
D03*
X32500D02*
D03*
X27500D02*
D03*
X22500D02*
D03*
X17500D02*
D03*
X12500D02*
D03*
X-47500Y-69000D02*
D03*
X-42500D02*
D03*
X-37500D02*
D03*
X-32500D02*
D03*
X-27500D02*
D03*
X-22500D02*
D03*
X-17500D02*
D03*
X-12500D02*
D03*
Y-91000D02*
D03*
X-17500D02*
D03*
X-22500D02*
D03*
X-27500D02*
D03*
X-32500D02*
D03*
X-37500D02*
D03*
X-42500D02*
D03*
X-47500D02*
D03*
D42*
X178740Y-52130D02*
D03*
X175000D02*
D03*
X171260D02*
D03*
Y-60870D02*
D03*
X175000D02*
D03*
X178740D02*
D03*
D43*
X-265724Y33175D02*
D03*
Y54825D02*
D03*
D44*
Y38015D02*
D03*
Y49985D02*
D03*
D45*
Y42030D02*
D03*
Y45970D02*
D03*
D46*
X-177000Y-84500D02*
D03*
X-186000D02*
D03*
D47*
X-138594Y-132500D02*
D03*
Y-127500D02*
D03*
Y-122500D02*
D03*
Y-117500D02*
D03*
Y-112500D02*
D03*
Y-107500D02*
D03*
Y-102500D02*
D03*
Y-97500D02*
D03*
X-100406D02*
D03*
Y-102500D02*
D03*
Y-107500D02*
D03*
Y-112500D02*
D03*
Y-117500D02*
D03*
Y-122500D02*
D03*
Y-127500D02*
D03*
Y-132500D02*
D03*
D48*
X-23622Y76102D02*
D03*
X-20472D02*
D03*
X-17323D02*
D03*
X-14173D02*
D03*
X-11024D02*
D03*
X-7874D02*
D03*
X-4724D02*
D03*
X-1575D02*
D03*
X1575D02*
D03*
X4724D02*
D03*
X7874D02*
D03*
X11024D02*
D03*
X14173D02*
D03*
X17323D02*
D03*
X20472D02*
D03*
X23622D02*
D03*
Y-11102D02*
D03*
X20472D02*
D03*
X17323D02*
D03*
X14173D02*
D03*
X11024D02*
D03*
X7874D02*
D03*
X4724D02*
D03*
X1575D02*
D03*
X-1575D02*
D03*
X-4724D02*
D03*
X-7874D02*
D03*
X-11024D02*
D03*
X-14173D02*
D03*
X-17323D02*
D03*
X-20472D02*
D03*
X-23622D02*
D03*
D49*
X31791Y68721D02*
D03*
Y65571D02*
D03*
Y62421D02*
D03*
Y59272D02*
D03*
Y56122D02*
D03*
Y52972D02*
D03*
Y49823D02*
D03*
Y46673D02*
D03*
Y43524D02*
D03*
Y40374D02*
D03*
Y37224D02*
D03*
Y34075D02*
D03*
Y30925D02*
D03*
Y27776D02*
D03*
Y24626D02*
D03*
Y21476D02*
D03*
Y18327D02*
D03*
Y15177D02*
D03*
Y12028D02*
D03*
Y8878D02*
D03*
Y5728D02*
D03*
Y2579D02*
D03*
Y-571D02*
D03*
Y-3720D02*
D03*
X-31791D02*
D03*
Y-571D02*
D03*
Y2579D02*
D03*
Y5728D02*
D03*
Y8878D02*
D03*
Y12028D02*
D03*
Y15177D02*
D03*
Y18327D02*
D03*
Y21476D02*
D03*
Y24626D02*
D03*
Y27776D02*
D03*
Y30925D02*
D03*
Y34075D02*
D03*
Y37224D02*
D03*
Y40374D02*
D03*
Y43524D02*
D03*
Y46673D02*
D03*
Y49823D02*
D03*
Y52972D02*
D03*
Y56122D02*
D03*
Y59272D02*
D03*
Y62421D02*
D03*
Y65571D02*
D03*
Y68721D02*
D03*
D50*
X-190500Y-175500D02*
D03*
X35500D02*
D03*
D51*
X275000Y160000D02*
D03*
X275500Y-189500D02*
D03*
X-274500D02*
D03*
Y159500D02*
D03*
D52*
X255404Y136915D02*
D03*
X175404D02*
D03*
X65404D02*
D03*
X-14596D02*
D03*
X-124596D02*
D03*
X-204596D02*
D03*
D53*
X251060Y125463D02*
D03*
X171060D02*
D03*
X61061D02*
D03*
X-18939D02*
D03*
X-128940D02*
D03*
X-208940D02*
D03*
D54*
X253927Y149076D02*
D03*
X173927D02*
D03*
X63927D02*
D03*
X-16073D02*
D03*
X-126073D02*
D03*
X-206073D02*
D03*
D55*
X246969Y159155D02*
D03*
X166969D02*
D03*
X56969D02*
D03*
X-23031D02*
D03*
X-133031D02*
D03*
X-213031D02*
D03*
D56*
X236123Y164847D02*
D03*
X156123D02*
D03*
X46123D02*
D03*
X-33877D02*
D03*
X-143877D02*
D03*
X-223877D02*
D03*
D57*
X223875Y164847D02*
D03*
X143875D02*
D03*
X33875D02*
D03*
X-46125D02*
D03*
X-156125D02*
D03*
X-236125D02*
D03*
D58*
X213030Y159154D02*
D03*
X133030D02*
D03*
X23030D02*
D03*
X-56970D02*
D03*
X-166970D02*
D03*
X-246970D02*
D03*
D59*
X206072Y149074D02*
D03*
X126072D02*
D03*
X16072D02*
D03*
X-63928D02*
D03*
X-173928D02*
D03*
X-253928D02*
D03*
D60*
X204596Y136915D02*
D03*
X124596D02*
D03*
X14596D02*
D03*
X-65404D02*
D03*
X-175404D02*
D03*
X-255404D02*
D03*
D61*
X208940Y125463D02*
D03*
X128940D02*
D03*
X18939D02*
D03*
X-61061D02*
D03*
X-171060D02*
D03*
X-251060D02*
D03*
D62*
X218108Y117341D02*
D03*
X138108D02*
D03*
X28108D02*
D03*
X-51892D02*
D03*
X-161892D02*
D03*
X-241892D02*
D03*
D63*
X241892D02*
D03*
X161892D02*
D03*
X51892D02*
D03*
X-28108D02*
D03*
X-138108D02*
D03*
X-218108D02*
D03*
D64*
X230000Y114409D02*
D03*
X150000D02*
D03*
X40000D02*
D03*
X-40000D02*
D03*
X-150000D02*
D03*
X-230000D02*
D03*
D65*
X92500Y-69700D02*
D03*
Y-99200D02*
D03*
D66*
X178157Y-167811D02*
D03*
X188000D02*
D03*
X197843D02*
D03*
X178157Y-144189D02*
D03*
X188000D02*
D03*
X197843D02*
D03*
D67*
X-172000Y-171000D02*
D03*
D68*
Y-181000D02*
D03*
X-162000Y-171000D02*
D03*
Y-181000D02*
D03*
X-152000Y-171000D02*
D03*
Y-181000D02*
D03*
X-142000Y-171000D02*
D03*
Y-181000D02*
D03*
X-132000Y-171000D02*
D03*
Y-181000D02*
D03*
X-122000Y-171000D02*
D03*
Y-181000D02*
D03*
X-112000Y-171000D02*
D03*
Y-181000D02*
D03*
X-102000Y-171000D02*
D03*
Y-181000D02*
D03*
X-92000Y-171000D02*
D03*
Y-181000D02*
D03*
X-82000Y-171000D02*
D03*
Y-181000D02*
D03*
X-72000Y-171000D02*
D03*
Y-181000D02*
D03*
X-62000Y-171000D02*
D03*
Y-181000D02*
D03*
X-52000Y-171000D02*
D03*
Y-181000D02*
D03*
X-42000Y-171000D02*
D03*
Y-181000D02*
D03*
X-32000Y-171000D02*
D03*
Y-181000D02*
D03*
X-22000Y-171000D02*
D03*
Y-181000D02*
D03*
X-12000Y-171000D02*
D03*
Y-181000D02*
D03*
X-2000Y-171000D02*
D03*
Y-181000D02*
D03*
X8000Y-171000D02*
D03*
Y-181000D02*
D03*
X18000Y-171000D02*
D03*
Y-181000D02*
D03*
D69*
X175000Y500D02*
D03*
X205000D02*
D03*
X175000Y60500D02*
D03*
X225000D02*
D03*
D70*
X-266315Y26992D02*
D03*
Y61008D02*
D03*
X-281275Y26992D02*
D03*
Y61008D02*
D03*
D71*
X135000Y-117500D02*
D03*
D72*
Y-107500D02*
D03*
Y-97500D02*
D03*
Y-87500D02*
D03*
Y-77500D02*
D03*
Y-67500D02*
D03*
D73*
X86500Y-156500D02*
D03*
X-241500Y33500D02*
D03*
Y55000D02*
D03*
M02*
