M48
;Layer_Color=9474304
;FILE_FORMAT=2:5
INCH,LZ
;TYPE=PLATED
T1F00S00C0.01800
T2F00S00C0.02300
T4F00S00C0.03000
T5F00S00C0.03543
T6F00S00C0.03740
T7F00S00C0.05118
T8F00S00C0.10827
T9F00S00C0.12205
;TYPE=NON_PLATED
T10F00S00C0.04724
T11F00S00C0.05118
%
T01
X-02685Y-0149
X-0219Y-0148
X-0217Y-0193
X-01425Y-02005
X-00965Y-01985
X-0172346Y-0146653
X-00625Y-0198
X-0048
X-00275Y-01885
X00295Y-01625
X0035Y-0147
X0048Y-0167
X006525Y-015925
X0065Y-01535
X00725Y-01565
X00865
X00965Y-01545
X0082Y-0173
X0109Y-01935
X013Y-01775
X0164Y-01935
X02295Y-0183
X02535Y-0156
X02585Y-0118
X02255Y-0119
X0254Y-007
X0271Y-0027
X0225Y-00325
X0228Y00065
X02585Y0012
X02155Y-0057
X0198Y-0094
X01645Y-0077
Y-01135
X011Y-01305
X0103Y-0133
X0095Y-00875
X01135Y-00895
X0072Y-0099
X00755Y-00755
X007Y-00205
X0088Y-00165
X01215Y-00175
X0147Y-00115
X015Y-0043
X00645Y-0036
X00555Y-0026
X0050319Y-00037
Y00026
Y00089
X0044169Y001205
Y000575
Y-000055
X00125Y00075
X00078Y-0022
X00047Y-0027
X0005Y-00345
X0016Y-003
X00165Y-0023
X00265Y-0028
X00275Y-0060433
X00225Y-00577
X00175Y-0060433
X00125Y-0058
X-00025Y-00585
X-00125Y-0055118
X-00175Y-00585
X-00225Y-0055118
X-00275Y-00585
X-00325Y-0055118
X-00375Y-0058
X-00425Y-0055118
X-00475Y-0058
X-0048Y-0021
X-0051069Y-00038
Y00026
Y00088
X-0044848Y000572
Y001192
Y-0000679
X-0067Y-0014
X-0023561Y-0022
X-0017361
X-0011061
X-00143Y-0027
X-00205
X-00078
X00325Y-00575
X00375Y-0060433
X00425Y-0058
X00475Y-0060433
Y-01
X00375
X00275
X0029Y-01075
X0022
X00125
X00175Y-01
X00015Y-00895
X-00125Y-01
X-00225
X-00275Y-01035
X-00325Y-01
X-00425
X-0043Y-01055
X-00375Y-01215
X-00425Y-0132
X-0061
X-007
X-0079543Y-013555
X-00865Y-00935
X-00655Y-00865
X-00235Y-011
X-0024Y-0135
X-0008Y-0138
X00055Y-01225
X0038Y-0111
X0061Y-01105
X00535Y-0139
X004Y-01365
X-01335Y-01415
X-0169Y-01325
X-0188
X-0174Y-0114
X-01875Y-0048
X-0165Y-0026
X-0121Y-00265
X-0143Y-00495
X-0098Y-00585
X-02355Y-00925
X-024Y-0014
X-02585Y-0002
X-02505Y-0044
X-02565Y-00605
X-0266Y-01145
X-026Y0075
X-0261Y0101312
X-025Y00975
X-0277Y009
X-02775Y0126
X-0191Y01455
X-019Y01605
X-0195Y0099
X-0199Y0094
X-01805Y0102
X-0173
X-01215Y00985
X-0117Y01035
X-0102Y01455
X-00885Y01335
X-0092Y01655
X-02415Y0055
Y00335
X-0051069Y00341
Y00278
Y00215
Y00152
X-0044848Y001832
Y0024621
Y0031021
Y003722
Y004362
X-004478Y0049821
Y0056221
Y006248
Y0068721
X-0051Y00655
Y00592
Y0053
Y00467
X-0051069Y00405
X-00525Y0084
X-00815Y0086
X-0066Y0103
X-00705Y0108
X-001435
X-0011Y0113
X-00016
X0002Y0108
X0004728Y0091
X0011
X00173
X00236
X002035Y008659
X001415
X000785
X0001578Y0086878
X-000485Y008659
X-001098
X-001735
X-0023622Y0086878
X-00205Y0091
X-00142
X-0008
X-00017
X-00135Y0057
X0011Y0053
X0002Y00325
X-0012Y00155
X004428Y001832
X0044169Y002465
Y003102
Y003715
X004428Y0043521
X0044169Y004975
Y005615
Y006248
X004428Y0068721
X0050429Y0065571
X0050319Y005952
Y0053
Y00467
X0050429Y0040471
X0050319Y0034
Y00278
Y00215
X0050429Y0015171
X0051Y0083
X0067Y0112
X-00005Y0141
X-0001Y0157
X00935Y01665
X0095Y0144
X00895Y01225
X00715Y01155
X0113Y0115
X01195
X01175Y0096
X01295Y0091
X017Y01025
X01755Y01085
X01965Y0105
X02025
X01925Y00815
X0189Y01275
X01935Y0162
X022Y004
X0203Y00215
X01565Y0044
X0098Y006
X0091Y00695
X0254Y01005
Y01075
X0279Y011
X0276Y01385
X0272Y00535
T02
X-0162Y-01535
X-0152Y-016
X-0144Y-01465
X01Y-016
X01005Y-01435
X01235Y-0129
X0072Y-00515
X-00655Y-01155
X-01455Y-00795
T04
X-025106Y0125463
X-0255404Y0136915
X-0253928Y0149074
X-024697Y0159154
X-0236125Y0164847
X-0223877Y0164847
X-0213031Y0159155
X-0206073Y0149076
X-0204596Y0136915
X-020894Y0125463
X-0218108Y0117341
X-023Y0114409
X-0241892Y0117341
X-017106Y0125463
X-0175404Y0136915
X-0173928Y0149074
X-016697Y0159154
X-0156125Y0164847
X-0143877Y0164847
X-0133031Y0159155
X-0126073Y0149076
X-0124596Y0136915
X-012894Y0125463
X-0138108Y0117341
X-015Y0114409
X-0161892Y0117341
X-0061061Y0125463
X-0065404Y0136915
X-0063928Y0149074
X-005697Y0159154
X-0046125Y0164847
X-0033877Y0164847
X-0023031Y0159155
X-0016073Y0149076
X-0014596Y0136915
X-0018939Y0125463
X-0028108Y0117341
X-004Y0114409
X-0051892Y0117341
X0018939Y0125463
X0014596Y0136915
X0016072Y0149074
X002303Y0159154
X0033875Y0164847
X0046123Y0164847
X0056969Y0159155
X0063927Y0149076
X0065404Y0136915
X0061061Y0125463
X0051892Y0117341
X004Y0114409
X0028108Y0117341
X012894Y0125463
X0124596Y0136915
X0126072Y0149074
X013303Y0159154
X0143875Y0164847
X0156123Y0164847
X0166969Y0159155
X0173927Y0149076
X0175404Y0136915
X017106Y0125463
X0161892Y0117341
X015Y0114409
X0138108Y0117341
X020894Y0125463
X0204596Y0136915
X0206072Y0149074
X021303Y0159154
X0223875Y0164847
X0218108Y0117341
X023Y0114409
X0241892Y0117341
X025106Y0125463
X0255404Y0136915
X0253927Y0149076
X0246969Y0159155
X0236123Y0164847
T05
X-0172Y-0181
Y-0171
X-0162
Y-0181
X-0152
Y-0171
X-0142
Y-0181
X-0132
Y-0171
X-0122
Y-0181
X-0112
Y-0171
X-0102
Y-0181
X-0092
Y-0171
X-0082
Y-0181
X-0072
Y-0171
X-0062
Y-0181
X-0052
Y-0171
X-0042
Y-0181
X-0032
Y-0171
X-0022
Y-0181
X-0012
Y-0171
X-0002
Y-0181
X0008
Y-0171
X0018
Y-0181
X0135Y-01175
Y-01075
Y-00975
Y-00875
Y-00775
Y-00675
T06
X0178157Y-0167811
X0188
X0197843
Y-0144189
X0188
X0178157
T07
X0175Y00005
X0205
X0175Y00605
X0225
T08
X-01905Y-01755
X00355
T09
X-02745Y-01895
X02755
X-02745Y01595
X0275Y016
T10
X00925Y-00992
T11
X00925Y-00697
M30
