G04*
G04 #@! TF.GenerationSoftware,Altium Limited,Altium Designer,20.0.9 (164)*
G04*
G04 Layer_Color=16711935*
%FSLAX25Y25*%
%MOIN*%
G70*
G01*
G75*
%ADD34R,0.04737X0.05131*%
%ADD50C,0.16548*%
%ADD51C,0.20485*%
G04:AMPARAMS|DCode=52|XSize=86.74mil|YSize=106.42mil|CornerRadius=0mil|HoleSize=0mil|Usage=FLASHONLY|Rotation=83.076|XOffset=0mil|YOffset=0mil|HoleType=Round|Shape=Round|*
%AMOVALD52*
21,1,0.01968,0.08674,0.00000,0.00000,173.1*
1,1,0.08674,0.00977,-0.00119*
1,1,0.08674,-0.00977,0.00119*
%
%ADD52OVALD52*%

G04:AMPARAMS|DCode=53|XSize=86.74mil|YSize=106.42mil|CornerRadius=0mil|HoleSize=0mil|Usage=FLASHONLY|Rotation=55.384|XOffset=0mil|YOffset=0mil|HoleType=Round|Shape=Round|*
%AMOVALD53*
21,1,0.01968,0.08674,0.00000,0.00000,145.4*
1,1,0.08674,0.00810,-0.00559*
1,1,0.08674,-0.00810,0.00559*
%
%ADD53OVALD53*%

G04:AMPARAMS|DCode=54|XSize=86.74mil|YSize=106.42mil|CornerRadius=0mil|HoleSize=0mil|Usage=FLASHONLY|Rotation=110.768|XOffset=0mil|YOffset=0mil|HoleType=Round|Shape=Round|*
%AMOVALD54*
21,1,0.01968,0.08674,0.00000,0.00000,200.8*
1,1,0.08674,0.00920,0.00349*
1,1,0.08674,-0.00920,-0.00349*
%
%ADD54OVALD54*%

G04:AMPARAMS|DCode=55|XSize=86.74mil|YSize=106.42mil|CornerRadius=0mil|HoleSize=0mil|Usage=FLASHONLY|Rotation=138.460|XOffset=0mil|YOffset=0mil|HoleType=Round|Shape=Round|*
%AMOVALD55*
21,1,0.01968,0.08674,0.00000,0.00000,228.5*
1,1,0.08674,0.00653,0.00737*
1,1,0.08674,-0.00653,-0.00737*
%
%ADD55OVALD55*%

G04:AMPARAMS|DCode=56|XSize=86.74mil|YSize=106.42mil|CornerRadius=0mil|HoleSize=0mil|Usage=FLASHONLY|Rotation=166.152|XOffset=0mil|YOffset=0mil|HoleType=Round|Shape=Round|*
%AMOVALD56*
21,1,0.01968,0.08674,0.00000,0.00000,256.2*
1,1,0.08674,0.00236,0.00956*
1,1,0.08674,-0.00236,-0.00956*
%
%ADD56OVALD56*%

G04:AMPARAMS|DCode=57|XSize=86.74mil|YSize=106.42mil|CornerRadius=0mil|HoleSize=0mil|Usage=FLASHONLY|Rotation=193.848|XOffset=0mil|YOffset=0mil|HoleType=Round|Shape=Round|*
%AMOVALD57*
21,1,0.01968,0.08674,0.00000,0.00000,283.8*
1,1,0.08674,-0.00236,0.00956*
1,1,0.08674,0.00236,-0.00956*
%
%ADD57OVALD57*%

G04:AMPARAMS|DCode=58|XSize=86.74mil|YSize=106.42mil|CornerRadius=0mil|HoleSize=0mil|Usage=FLASHONLY|Rotation=221.540|XOffset=0mil|YOffset=0mil|HoleType=Round|Shape=Round|*
%AMOVALD58*
21,1,0.01968,0.08674,0.00000,0.00000,311.5*
1,1,0.08674,-0.00653,0.00737*
1,1,0.08674,0.00653,-0.00737*
%
%ADD58OVALD58*%

G04:AMPARAMS|DCode=59|XSize=86.74mil|YSize=106.42mil|CornerRadius=0mil|HoleSize=0mil|Usage=FLASHONLY|Rotation=249.232|XOffset=0mil|YOffset=0mil|HoleType=Round|Shape=Round|*
%AMOVALD59*
21,1,0.01968,0.08674,0.00000,0.00000,339.2*
1,1,0.08674,-0.00920,0.00349*
1,1,0.08674,0.00920,-0.00349*
%
%ADD59OVALD59*%

G04:AMPARAMS|DCode=60|XSize=86.74mil|YSize=106.42mil|CornerRadius=0mil|HoleSize=0mil|Usage=FLASHONLY|Rotation=276.924|XOffset=0mil|YOffset=0mil|HoleType=Round|Shape=Round|*
%AMOVALD60*
21,1,0.01968,0.08674,0.00000,0.00000,6.9*
1,1,0.08674,-0.00977,-0.00119*
1,1,0.08674,0.00977,0.00119*
%
%ADD60OVALD60*%

G04:AMPARAMS|DCode=61|XSize=86.74mil|YSize=106.42mil|CornerRadius=0mil|HoleSize=0mil|Usage=FLASHONLY|Rotation=304.616|XOffset=0mil|YOffset=0mil|HoleType=Round|Shape=Round|*
%AMOVALD61*
21,1,0.01968,0.08674,0.00000,0.00000,34.6*
1,1,0.08674,-0.00810,-0.00559*
1,1,0.08674,0.00810,0.00559*
%
%ADD61OVALD61*%

G04:AMPARAMS|DCode=62|XSize=86.74mil|YSize=106.42mil|CornerRadius=0mil|HoleSize=0mil|Usage=FLASHONLY|Rotation=332.308|XOffset=0mil|YOffset=0mil|HoleType=Round|Shape=Round|*
%AMOVALD62*
21,1,0.01968,0.08674,0.00000,0.00000,62.3*
1,1,0.08674,-0.00457,-0.00872*
1,1,0.08674,0.00457,0.00872*
%
%ADD62OVALD62*%

G04:AMPARAMS|DCode=63|XSize=86.74mil|YSize=106.42mil|CornerRadius=0mil|HoleSize=0mil|Usage=FLASHONLY|Rotation=27.692|XOffset=0mil|YOffset=0mil|HoleType=Round|Shape=Round|*
%AMOVALD63*
21,1,0.01968,0.08674,0.00000,0.00000,117.7*
1,1,0.08674,0.00457,-0.00872*
1,1,0.08674,-0.00457,0.00872*
%
%ADD63OVALD63*%

G04:AMPARAMS|DCode=64|XSize=86.74mil|YSize=106.42mil|CornerRadius=23.68mil|HoleSize=0mil|Usage=FLASHONLY|Rotation=0.000|XOffset=0mil|YOffset=0mil|HoleType=Round|Shape=RoundedRectangle|*
%AMROUNDEDRECTD64*
21,1,0.08674,0.05906,0,0,0.0*
21,1,0.03937,0.10642,0,0,0.0*
1,1,0.04737,0.01968,-0.02953*
1,1,0.04737,-0.01968,-0.02953*
1,1,0.04737,-0.01968,0.02953*
1,1,0.04737,0.01968,0.02953*
%
%ADD64ROUNDEDRECTD64*%
%ADD65C,0.05524*%
%ADD66C,0.06540*%
%ADD67R,0.07099X0.07099*%
%ADD68C,0.07099*%
%ADD69C,0.10642*%
%ADD70O,0.07887X0.05131*%
%ADD71R,0.07493X0.07493*%
%ADD72C,0.07493*%
%ADD73C,0.03800*%
D34*
X4500Y-115000D02*
D03*
Y-108307D02*
D03*
X-5500Y-115000D02*
D03*
Y-108307D02*
D03*
X49400Y-146653D02*
D03*
Y-153347D02*
D03*
D50*
X-190500Y-175500D02*
D03*
X35500D02*
D03*
D51*
X275000Y160000D02*
D03*
X275500Y-189500D02*
D03*
X-274500D02*
D03*
Y159500D02*
D03*
D52*
X255404Y136915D02*
D03*
X175404D02*
D03*
X65404D02*
D03*
X-14596D02*
D03*
X-124596D02*
D03*
X-204596D02*
D03*
D53*
X251060Y125463D02*
D03*
X171060D02*
D03*
X61061D02*
D03*
X-18939D02*
D03*
X-128940D02*
D03*
X-208940D02*
D03*
D54*
X253927Y149076D02*
D03*
X173927D02*
D03*
X63927D02*
D03*
X-16073D02*
D03*
X-126073D02*
D03*
X-206073D02*
D03*
D55*
X246969Y159155D02*
D03*
X166969D02*
D03*
X56969D02*
D03*
X-23031D02*
D03*
X-133031D02*
D03*
X-213031D02*
D03*
D56*
X236123Y164847D02*
D03*
X156123D02*
D03*
X46123D02*
D03*
X-33877D02*
D03*
X-143877D02*
D03*
X-223877D02*
D03*
D57*
X223875Y164847D02*
D03*
X143875D02*
D03*
X33875D02*
D03*
X-46125D02*
D03*
X-156125D02*
D03*
X-236125D02*
D03*
D58*
X213030Y159154D02*
D03*
X133030D02*
D03*
X23030D02*
D03*
X-56970D02*
D03*
X-166970D02*
D03*
X-246970D02*
D03*
D59*
X206072Y149074D02*
D03*
X126072D02*
D03*
X16072D02*
D03*
X-63928D02*
D03*
X-173928D02*
D03*
X-253928D02*
D03*
D60*
X204596Y136915D02*
D03*
X124596D02*
D03*
X14596D02*
D03*
X-65404D02*
D03*
X-175404D02*
D03*
X-255404D02*
D03*
D61*
X208940Y125463D02*
D03*
X128940D02*
D03*
X18939D02*
D03*
X-61061D02*
D03*
X-171060D02*
D03*
X-251060D02*
D03*
D62*
X218108Y117341D02*
D03*
X138108D02*
D03*
X28108D02*
D03*
X-51892D02*
D03*
X-161892D02*
D03*
X-241892D02*
D03*
D63*
X241892D02*
D03*
X161892D02*
D03*
X51892D02*
D03*
X-28108D02*
D03*
X-138108D02*
D03*
X-218108D02*
D03*
D64*
X230000Y114409D02*
D03*
X150000D02*
D03*
X40000D02*
D03*
X-40000D02*
D03*
X-150000D02*
D03*
X-230000D02*
D03*
D65*
X92500Y-69700D02*
D03*
Y-99200D02*
D03*
D66*
X178157Y-167811D02*
D03*
X188000D02*
D03*
X197843D02*
D03*
X178157Y-144189D02*
D03*
X188000D02*
D03*
X197843D02*
D03*
D67*
X-172000Y-171000D02*
D03*
D68*
Y-181000D02*
D03*
X-162000Y-171000D02*
D03*
Y-181000D02*
D03*
X-152000Y-171000D02*
D03*
Y-181000D02*
D03*
X-142000Y-171000D02*
D03*
Y-181000D02*
D03*
X-132000Y-171000D02*
D03*
Y-181000D02*
D03*
X-122000Y-171000D02*
D03*
Y-181000D02*
D03*
X-112000Y-171000D02*
D03*
Y-181000D02*
D03*
X-102000Y-171000D02*
D03*
Y-181000D02*
D03*
X-92000Y-171000D02*
D03*
Y-181000D02*
D03*
X-82000Y-171000D02*
D03*
Y-181000D02*
D03*
X-72000Y-171000D02*
D03*
Y-181000D02*
D03*
X-62000Y-171000D02*
D03*
Y-181000D02*
D03*
X-52000Y-171000D02*
D03*
Y-181000D02*
D03*
X-42000Y-171000D02*
D03*
Y-181000D02*
D03*
X-32000Y-171000D02*
D03*
Y-181000D02*
D03*
X-22000Y-171000D02*
D03*
Y-181000D02*
D03*
X-12000Y-171000D02*
D03*
Y-181000D02*
D03*
X-2000Y-171000D02*
D03*
Y-181000D02*
D03*
X8000Y-171000D02*
D03*
Y-181000D02*
D03*
X18000Y-171000D02*
D03*
Y-181000D02*
D03*
D69*
X175000Y500D02*
D03*
X205000D02*
D03*
X175000Y60500D02*
D03*
X225000D02*
D03*
D70*
X-266315Y26992D02*
D03*
Y61008D02*
D03*
X-281275Y26992D02*
D03*
Y61008D02*
D03*
D71*
X135000Y-117500D02*
D03*
D72*
Y-107500D02*
D03*
Y-97500D02*
D03*
Y-87500D02*
D03*
Y-77500D02*
D03*
Y-67500D02*
D03*
D73*
X86500Y-156500D02*
D03*
X-241500Y33500D02*
D03*
Y55000D02*
D03*
M02*
