G04*
G04 #@! TF.GenerationSoftware,Altium Limited,Altium Designer,20.0.9 (164)*
G04*
G04 Layer_Color=2752767*
%FSLAX25Y25*%
%MOIN*%
G70*
G01*
G75*
%ADD10C,0.01000*%
%ADD105C,0.00200*%
%ADD106C,0.00267*%
%ADD107C,0.00133*%
D10*
X79000Y229997D02*
Y223999D01*
X82999D01*
X87997D02*
X85998D01*
X84998Y224999D01*
Y226998D01*
X85998Y227998D01*
X87997D01*
X88997Y226998D01*
Y225999D01*
X84998D01*
X92996Y222000D02*
X93995D01*
X94995Y223000D01*
Y227998D01*
X91996D01*
X90996Y226998D01*
Y224999D01*
X91996Y223999D01*
X94995D01*
X99993D02*
X97994D01*
X96994Y224999D01*
Y226998D01*
X97994Y227998D01*
X99993D01*
X100993Y226998D01*
Y225999D01*
X96994D01*
X102992Y223999D02*
Y227998D01*
X105991D01*
X106991Y226998D01*
Y223999D01*
X112989Y229997D02*
Y223999D01*
X109990D01*
X108990Y224999D01*
Y226998D01*
X109990Y227998D01*
X112989D01*
X120986Y223999D02*
X122986D01*
X121986D01*
Y227998D01*
X120986D01*
X125985Y223999D02*
X128984D01*
X129983Y224999D01*
X128984Y225999D01*
X126985D01*
X125985Y226998D01*
X126985Y227998D01*
X129983D01*
X137981Y223999D02*
Y227998D01*
X140980D01*
X141980Y226998D01*
Y223999D01*
X144979D02*
X146978D01*
X147978Y224999D01*
Y226998D01*
X146978Y227998D01*
X144979D01*
X143979Y226998D01*
Y224999D01*
X144979Y223999D01*
X150977Y228998D02*
Y227998D01*
X149977D01*
X151976D01*
X150977D01*
Y224999D01*
X151976Y223999D01*
X160974D02*
X162973D01*
X161973D01*
Y227998D01*
X160974D01*
X165972Y223999D02*
Y227998D01*
X168971D01*
X169971Y226998D01*
Y223999D01*
X172970Y228998D02*
Y227998D01*
X171970D01*
X173969D01*
X172970D01*
Y224999D01*
X173969Y223999D01*
X179967D02*
X177968D01*
X176968Y224999D01*
Y226998D01*
X177968Y227998D01*
X179967D01*
X180967Y226998D01*
Y225999D01*
X176968D01*
X182966Y227998D02*
Y223999D01*
Y225999D01*
X183966Y226998D01*
X184966Y227998D01*
X185965D01*
X188964Y222000D02*
Y227998D01*
X191963D01*
X192963Y226998D01*
Y224999D01*
X191963Y223999D01*
X188964D01*
X194963Y227998D02*
Y223999D01*
Y225999D01*
X195962Y226998D01*
X196962Y227998D01*
X197961D01*
X203960Y223999D02*
X201960D01*
X200960Y224999D01*
Y226998D01*
X201960Y227998D01*
X203960D01*
X204959Y226998D01*
Y225999D01*
X200960D01*
X207958Y228998D02*
Y227998D01*
X206959D01*
X208958D01*
X207958D01*
Y224999D01*
X208958Y223999D01*
X214956D02*
X212957D01*
X211957Y224999D01*
Y226998D01*
X212957Y227998D01*
X214956D01*
X215956Y226998D01*
Y225999D01*
X211957D01*
X221954Y229997D02*
Y223999D01*
X218955D01*
X217955Y224999D01*
Y226998D01*
X218955Y227998D01*
X221954D01*
X229951D02*
Y224999D01*
X230951Y223999D01*
X233950D01*
Y227998D01*
X235949Y223999D02*
Y227998D01*
X238948D01*
X239948Y226998D01*
Y223999D01*
X242947Y228998D02*
Y227998D01*
X241947D01*
X243947D01*
X242947D01*
Y224999D01*
X243947Y223999D01*
X246946D02*
X248945D01*
X247945D01*
Y227998D01*
X246946D01*
X251944Y223999D02*
X253943D01*
X252944D01*
Y229997D01*
X251944D01*
X263940Y223999D02*
X265939D01*
X266939Y224999D01*
Y226998D01*
X265939Y227998D01*
X263940D01*
X262941Y226998D01*
Y224999D01*
X263940Y223999D01*
X268938Y227998D02*
Y224999D01*
X269938Y223999D01*
X272937D01*
Y227998D01*
X275936Y228998D02*
Y227998D01*
X274937D01*
X276936D01*
X275936D01*
Y224999D01*
X276936Y223999D01*
X279935Y222000D02*
Y227998D01*
X282934D01*
X283934Y226998D01*
Y224999D01*
X282934Y223999D01*
X279935D01*
X285933Y227998D02*
Y224999D01*
X286933Y223999D01*
X289932D01*
Y227998D01*
X292931Y228998D02*
Y227998D01*
X291931D01*
X293931D01*
X292931D01*
Y224999D01*
X293931Y223999D01*
D105*
X-191300Y-176300D02*
Y-174700D01*
X-189700D01*
Y-176300D01*
X-191300D01*
X34700D02*
Y-174700D01*
X36300D01*
Y-176300D01*
X34700D01*
X255404Y136115D02*
X254604Y137715D01*
X256204D01*
X255404Y136115D01*
X251060Y124663D02*
X250260Y126263D01*
X251860D01*
X251060Y124663D01*
X253927Y148276D02*
X253127Y149876D01*
X254727D01*
X253927Y148276D01*
X246969Y158355D02*
X246169Y159956D01*
X247769D01*
X246969Y158355D01*
X236123Y164047D02*
X235323Y165647D01*
X236923D01*
X236123Y164047D01*
X223875Y164047D02*
X223075Y165647D01*
X224675D01*
X223875Y164047D01*
X213030Y158354D02*
X212230Y159954D01*
X213830D01*
X213030Y158354D01*
X206072Y148274D02*
X205272Y149874D01*
X206872D01*
X206072Y148274D01*
X204596Y136115D02*
X203796Y137715D01*
X205396D01*
X204596Y136115D01*
X208940Y124663D02*
X208140Y126263D01*
X209740D01*
X208940Y124663D01*
X218108Y116541D02*
X217308Y118141D01*
X218908D01*
X218108Y116541D01*
X241892D02*
X241092Y118141D01*
X242692D01*
X241892Y116541D01*
X230000Y113609D02*
X229200Y115209D01*
X230800D01*
X230000Y113609D01*
X175404Y136115D02*
X174604Y137715D01*
X176204D01*
X175404Y136115D01*
X171060Y124663D02*
X170260Y126263D01*
X171860D01*
X171060Y124663D01*
X173927Y148276D02*
X173127Y149876D01*
X174727D01*
X173927Y148276D01*
X166969Y158355D02*
X166169Y159956D01*
X167769D01*
X166969Y158355D01*
X156123Y164047D02*
X155323Y165647D01*
X156923D01*
X156123Y164047D01*
X143875Y164047D02*
X143075Y165647D01*
X144675D01*
X143875Y164047D01*
X133030Y158354D02*
X132230Y159954D01*
X133830D01*
X133030Y158354D01*
X126072Y148274D02*
X125272Y149874D01*
X126872D01*
X126072Y148274D01*
X124596Y136115D02*
X123796Y137715D01*
X125396D01*
X124596Y136115D01*
X128940Y124663D02*
X128140Y126263D01*
X129740D01*
X128940Y124663D01*
X138108Y116541D02*
X137308Y118141D01*
X138908D01*
X138108Y116541D01*
X161892D02*
X161092Y118141D01*
X162692D01*
X161892Y116541D01*
X150000Y113609D02*
X149200Y115209D01*
X150800D01*
X150000Y113609D01*
X65404Y136115D02*
X64604Y137715D01*
X66204D01*
X65404Y136115D01*
X61061Y124663D02*
X60260Y126263D01*
X61861D01*
X61061Y124663D01*
X63927Y148276D02*
X63127Y149876D01*
X64727D01*
X63927Y148276D01*
X56969Y158355D02*
X56169Y159956D01*
X57769D01*
X56969Y158355D01*
X46123Y164047D02*
X45323Y165647D01*
X46923D01*
X46123Y164047D01*
X33875Y164047D02*
X33075Y165647D01*
X34675D01*
X33875Y164047D01*
X23030Y158354D02*
X22230Y159954D01*
X23830D01*
X23030Y158354D01*
X16072Y148274D02*
X15272Y149874D01*
X16872D01*
X16072Y148274D01*
X14596Y136115D02*
X13796Y137715D01*
X15396D01*
X14596Y136115D01*
X18939Y124663D02*
X18139Y126263D01*
X19739D01*
X18939Y124663D01*
X28108Y116541D02*
X27308Y118141D01*
X28908D01*
X28108Y116541D01*
X51892D02*
X51092Y118141D01*
X52692D01*
X51892Y116541D01*
X40000Y113609D02*
X39200Y115209D01*
X40800D01*
X40000Y113609D01*
X-14596Y136115D02*
X-15396Y137715D01*
X-13796D01*
X-14596Y136115D01*
X-18939Y124663D02*
X-19739Y126263D01*
X-18139D01*
X-18939Y124663D01*
X-16073Y148276D02*
X-16873Y149876D01*
X-15273D01*
X-16073Y148276D01*
X-23031Y158355D02*
X-23831Y159956D01*
X-22231D01*
X-23031Y158355D01*
X-33877Y164047D02*
X-34677Y165647D01*
X-33077D01*
X-33877Y164047D01*
X-46125Y164047D02*
X-46925Y165647D01*
X-45325D01*
X-46125Y164047D01*
X-56970Y158354D02*
X-57770Y159954D01*
X-56170D01*
X-56970Y158354D01*
X-63928Y148274D02*
X-64728Y149874D01*
X-63128D01*
X-63928Y148274D01*
X-65404Y136115D02*
X-66204Y137715D01*
X-64604D01*
X-65404Y136115D01*
X-61061Y124663D02*
X-61861Y126263D01*
X-60260D01*
X-61061Y124663D01*
X-51892Y116541D02*
X-52692Y118141D01*
X-51092D01*
X-51892Y116541D01*
X-28108D02*
X-28908Y118141D01*
X-27308D01*
X-28108Y116541D01*
X-40000Y113609D02*
X-40800Y115209D01*
X-39200D01*
X-40000Y113609D01*
X-124596Y136115D02*
X-125396Y137715D01*
X-123796D01*
X-124596Y136115D01*
X-128940Y124663D02*
X-129740Y126263D01*
X-128140D01*
X-128940Y124663D01*
X-126073Y148276D02*
X-126873Y149876D01*
X-125273D01*
X-126073Y148276D01*
X-133031Y158355D02*
X-133831Y159956D01*
X-132231D01*
X-133031Y158355D01*
X-143877Y164047D02*
X-144677Y165647D01*
X-143077D01*
X-143877Y164047D01*
X-156125Y164047D02*
X-156925Y165647D01*
X-155325D01*
X-156125Y164047D01*
X-166970Y158354D02*
X-167770Y159954D01*
X-166170D01*
X-166970Y158354D01*
X-173928Y148274D02*
X-174728Y149874D01*
X-173128D01*
X-173928Y148274D01*
X-175404Y136115D02*
X-176204Y137715D01*
X-174604D01*
X-175404Y136115D01*
X-171060Y124663D02*
X-171860Y126263D01*
X-170260D01*
X-171060Y124663D01*
X-161892Y116541D02*
X-162692Y118141D01*
X-161092D01*
X-161892Y116541D01*
X-138108D02*
X-138908Y118141D01*
X-137308D01*
X-138108Y116541D01*
X-150000Y113609D02*
X-150800Y115209D01*
X-149200D01*
X-150000Y113609D01*
X-204596Y136115D02*
X-205396Y137715D01*
X-203796D01*
X-204596Y136115D01*
X-208940Y124663D02*
X-209740Y126263D01*
X-208140D01*
X-208940Y124663D01*
X-206073Y148276D02*
X-206873Y149876D01*
X-205273D01*
X-206073Y148276D01*
X-213031Y158355D02*
X-213831Y159956D01*
X-212231D01*
X-213031Y158355D01*
X-223877Y164047D02*
X-224677Y165647D01*
X-223077D01*
X-223877Y164047D01*
X-236125Y164047D02*
X-236925Y165647D01*
X-235325D01*
X-236125Y164047D01*
X-246970Y158354D02*
X-247770Y159954D01*
X-246170D01*
X-246970Y158354D01*
X-253928Y148274D02*
X-254728Y149874D01*
X-253128D01*
X-253928Y148274D01*
X-255404Y136115D02*
X-256204Y137715D01*
X-254604D01*
X-255404Y136115D01*
X-251060Y124663D02*
X-251860Y126263D01*
X-250260D01*
X-251060Y124663D01*
X-241892Y116541D02*
X-242692Y118141D01*
X-241092D01*
X-241892Y116541D01*
X-218108D02*
X-218908Y118141D01*
X-217308D01*
X-218108Y116541D01*
X-230000Y113609D02*
X-230800Y115209D01*
X-229200D01*
X-230000Y113609D01*
X92500Y-70500D02*
X92900Y-70100D01*
X93300D01*
X92900Y-69700D01*
X93300Y-69300D01*
X92900D01*
X92500Y-68900D01*
X92100Y-69300D01*
X91700D01*
X92100Y-69700D01*
X91700Y-70100D01*
X92100D01*
X92500Y-70500D01*
X91700Y-100000D02*
X92100Y-99200D01*
X91700Y-98400D01*
X92500Y-98800D01*
X93300Y-98400D01*
X92900Y-99200D01*
X93300Y-100000D01*
X92500Y-99600D01*
X91700Y-100000D01*
X177758Y-168211D02*
Y-168611D01*
X178558D01*
Y-168211D01*
X178957D01*
Y-167411D01*
X178558D01*
Y-167011D01*
X177758D01*
Y-167411D01*
X177357D01*
Y-168211D01*
X177758D01*
X187600D02*
Y-168611D01*
X188400D01*
Y-168211D01*
X188800D01*
Y-167411D01*
X188400D01*
Y-167011D01*
X187600D01*
Y-167411D01*
X187200D01*
Y-168211D01*
X187600D01*
X197442D02*
Y-168611D01*
X198242D01*
Y-168211D01*
X198643D01*
Y-167411D01*
X198242D01*
Y-167011D01*
X197442D01*
Y-167411D01*
X197043D01*
Y-168211D01*
X197442D01*
X177758Y-144589D02*
Y-144989D01*
X178558D01*
Y-144589D01*
X178957D01*
Y-143789D01*
X178558D01*
Y-143389D01*
X177758D01*
Y-143789D01*
X177357D01*
Y-144589D01*
X177758D01*
X187600D02*
Y-144989D01*
X188400D01*
Y-144589D01*
X188800D01*
Y-143789D01*
X188400D01*
Y-143389D01*
X187600D01*
Y-143789D01*
X187200D01*
Y-144589D01*
X187600D01*
X197442D02*
Y-144989D01*
X198242D01*
Y-144589D01*
X198643D01*
Y-143789D01*
X198242D01*
Y-143389D01*
X197442D01*
Y-143789D01*
X197043D01*
Y-144589D01*
X197442D01*
X-172800Y-171800D02*
X-172400D01*
X-172000Y-171400D01*
X-171600Y-171800D01*
X-171200D01*
Y-171400D01*
X-171600Y-171000D01*
X-171200Y-170600D01*
Y-170200D01*
X-171600D01*
X-172000Y-170600D01*
X-172400Y-170200D01*
X-172800D01*
Y-170600D01*
X-172400Y-171000D01*
X-172800Y-171400D01*
Y-171800D01*
Y-181800D02*
X-172400D01*
X-172000Y-181400D01*
X-171600Y-181800D01*
X-171200D01*
Y-181400D01*
X-171600Y-181000D01*
X-171200Y-180600D01*
Y-180200D01*
X-171600D01*
X-172000Y-180600D01*
X-172400Y-180200D01*
X-172800D01*
Y-180600D01*
X-172400Y-181000D01*
X-172800Y-181400D01*
Y-181800D01*
X-162800Y-171800D02*
X-162400D01*
X-162000Y-171400D01*
X-161600Y-171800D01*
X-161200D01*
Y-171400D01*
X-161600Y-171000D01*
X-161200Y-170600D01*
Y-170200D01*
X-161600D01*
X-162000Y-170600D01*
X-162400Y-170200D01*
X-162800D01*
Y-170600D01*
X-162400Y-171000D01*
X-162800Y-171400D01*
Y-171800D01*
Y-181800D02*
X-162400D01*
X-162000Y-181400D01*
X-161600Y-181800D01*
X-161200D01*
Y-181400D01*
X-161600Y-181000D01*
X-161200Y-180600D01*
Y-180200D01*
X-161600D01*
X-162000Y-180600D01*
X-162400Y-180200D01*
X-162800D01*
Y-180600D01*
X-162400Y-181000D01*
X-162800Y-181400D01*
Y-181800D01*
X-152800Y-171800D02*
X-152400D01*
X-152000Y-171400D01*
X-151600Y-171800D01*
X-151200D01*
Y-171400D01*
X-151600Y-171000D01*
X-151200Y-170600D01*
Y-170200D01*
X-151600D01*
X-152000Y-170600D01*
X-152400Y-170200D01*
X-152800D01*
Y-170600D01*
X-152400Y-171000D01*
X-152800Y-171400D01*
Y-171800D01*
Y-181800D02*
X-152400D01*
X-152000Y-181400D01*
X-151600Y-181800D01*
X-151200D01*
Y-181400D01*
X-151600Y-181000D01*
X-151200Y-180600D01*
Y-180200D01*
X-151600D01*
X-152000Y-180600D01*
X-152400Y-180200D01*
X-152800D01*
Y-180600D01*
X-152400Y-181000D01*
X-152800Y-181400D01*
Y-181800D01*
X-142800Y-171800D02*
X-142400D01*
X-142000Y-171400D01*
X-141600Y-171800D01*
X-141200D01*
Y-171400D01*
X-141600Y-171000D01*
X-141200Y-170600D01*
Y-170200D01*
X-141600D01*
X-142000Y-170600D01*
X-142400Y-170200D01*
X-142800D01*
Y-170600D01*
X-142400Y-171000D01*
X-142800Y-171400D01*
Y-171800D01*
Y-181800D02*
X-142400D01*
X-142000Y-181400D01*
X-141600Y-181800D01*
X-141200D01*
Y-181400D01*
X-141600Y-181000D01*
X-141200Y-180600D01*
Y-180200D01*
X-141600D01*
X-142000Y-180600D01*
X-142400Y-180200D01*
X-142800D01*
Y-180600D01*
X-142400Y-181000D01*
X-142800Y-181400D01*
Y-181800D01*
X-132800Y-171800D02*
X-132400D01*
X-132000Y-171400D01*
X-131600Y-171800D01*
X-131200D01*
Y-171400D01*
X-131600Y-171000D01*
X-131200Y-170600D01*
Y-170200D01*
X-131600D01*
X-132000Y-170600D01*
X-132400Y-170200D01*
X-132800D01*
Y-170600D01*
X-132400Y-171000D01*
X-132800Y-171400D01*
Y-171800D01*
Y-181800D02*
X-132400D01*
X-132000Y-181400D01*
X-131600Y-181800D01*
X-131200D01*
Y-181400D01*
X-131600Y-181000D01*
X-131200Y-180600D01*
Y-180200D01*
X-131600D01*
X-132000Y-180600D01*
X-132400Y-180200D01*
X-132800D01*
Y-180600D01*
X-132400Y-181000D01*
X-132800Y-181400D01*
Y-181800D01*
X-122800Y-171800D02*
X-122400D01*
X-122000Y-171400D01*
X-121600Y-171800D01*
X-121200D01*
Y-171400D01*
X-121600Y-171000D01*
X-121200Y-170600D01*
Y-170200D01*
X-121600D01*
X-122000Y-170600D01*
X-122400Y-170200D01*
X-122800D01*
Y-170600D01*
X-122400Y-171000D01*
X-122800Y-171400D01*
Y-171800D01*
Y-181800D02*
X-122400D01*
X-122000Y-181400D01*
X-121600Y-181800D01*
X-121200D01*
Y-181400D01*
X-121600Y-181000D01*
X-121200Y-180600D01*
Y-180200D01*
X-121600D01*
X-122000Y-180600D01*
X-122400Y-180200D01*
X-122800D01*
Y-180600D01*
X-122400Y-181000D01*
X-122800Y-181400D01*
Y-181800D01*
X-112800Y-171800D02*
X-112400D01*
X-112000Y-171400D01*
X-111600Y-171800D01*
X-111200D01*
Y-171400D01*
X-111600Y-171000D01*
X-111200Y-170600D01*
Y-170200D01*
X-111600D01*
X-112000Y-170600D01*
X-112400Y-170200D01*
X-112800D01*
Y-170600D01*
X-112400Y-171000D01*
X-112800Y-171400D01*
Y-171800D01*
Y-181800D02*
X-112400D01*
X-112000Y-181400D01*
X-111600Y-181800D01*
X-111200D01*
Y-181400D01*
X-111600Y-181000D01*
X-111200Y-180600D01*
Y-180200D01*
X-111600D01*
X-112000Y-180600D01*
X-112400Y-180200D01*
X-112800D01*
Y-180600D01*
X-112400Y-181000D01*
X-112800Y-181400D01*
Y-181800D01*
X-102800Y-171800D02*
X-102400D01*
X-102000Y-171400D01*
X-101600Y-171800D01*
X-101200D01*
Y-171400D01*
X-101600Y-171000D01*
X-101200Y-170600D01*
Y-170200D01*
X-101600D01*
X-102000Y-170600D01*
X-102400Y-170200D01*
X-102800D01*
Y-170600D01*
X-102400Y-171000D01*
X-102800Y-171400D01*
Y-171800D01*
Y-181800D02*
X-102400D01*
X-102000Y-181400D01*
X-101600Y-181800D01*
X-101200D01*
Y-181400D01*
X-101600Y-181000D01*
X-101200Y-180600D01*
Y-180200D01*
X-101600D01*
X-102000Y-180600D01*
X-102400Y-180200D01*
X-102800D01*
Y-180600D01*
X-102400Y-181000D01*
X-102800Y-181400D01*
Y-181800D01*
X-92800Y-171800D02*
X-92400D01*
X-92000Y-171400D01*
X-91600Y-171800D01*
X-91200D01*
Y-171400D01*
X-91600Y-171000D01*
X-91200Y-170600D01*
Y-170200D01*
X-91600D01*
X-92000Y-170600D01*
X-92400Y-170200D01*
X-92800D01*
Y-170600D01*
X-92400Y-171000D01*
X-92800Y-171400D01*
Y-171800D01*
Y-181800D02*
X-92400D01*
X-92000Y-181400D01*
X-91600Y-181800D01*
X-91200D01*
Y-181400D01*
X-91600Y-181000D01*
X-91200Y-180600D01*
Y-180200D01*
X-91600D01*
X-92000Y-180600D01*
X-92400Y-180200D01*
X-92800D01*
Y-180600D01*
X-92400Y-181000D01*
X-92800Y-181400D01*
Y-181800D01*
X-82800Y-171800D02*
X-82400D01*
X-82000Y-171400D01*
X-81600Y-171800D01*
X-81200D01*
Y-171400D01*
X-81600Y-171000D01*
X-81200Y-170600D01*
Y-170200D01*
X-81600D01*
X-82000Y-170600D01*
X-82400Y-170200D01*
X-82800D01*
Y-170600D01*
X-82400Y-171000D01*
X-82800Y-171400D01*
Y-171800D01*
Y-181800D02*
X-82400D01*
X-82000Y-181400D01*
X-81600Y-181800D01*
X-81200D01*
Y-181400D01*
X-81600Y-181000D01*
X-81200Y-180600D01*
Y-180200D01*
X-81600D01*
X-82000Y-180600D01*
X-82400Y-180200D01*
X-82800D01*
Y-180600D01*
X-82400Y-181000D01*
X-82800Y-181400D01*
Y-181800D01*
X-72800Y-171800D02*
X-72400D01*
X-72000Y-171400D01*
X-71600Y-171800D01*
X-71200D01*
Y-171400D01*
X-71600Y-171000D01*
X-71200Y-170600D01*
Y-170200D01*
X-71600D01*
X-72000Y-170600D01*
X-72400Y-170200D01*
X-72800D01*
Y-170600D01*
X-72400Y-171000D01*
X-72800Y-171400D01*
Y-171800D01*
Y-181800D02*
X-72400D01*
X-72000Y-181400D01*
X-71600Y-181800D01*
X-71200D01*
Y-181400D01*
X-71600Y-181000D01*
X-71200Y-180600D01*
Y-180200D01*
X-71600D01*
X-72000Y-180600D01*
X-72400Y-180200D01*
X-72800D01*
Y-180600D01*
X-72400Y-181000D01*
X-72800Y-181400D01*
Y-181800D01*
X-62800Y-171800D02*
X-62400D01*
X-62000Y-171400D01*
X-61600Y-171800D01*
X-61200D01*
Y-171400D01*
X-61600Y-171000D01*
X-61200Y-170600D01*
Y-170200D01*
X-61600D01*
X-62000Y-170600D01*
X-62400Y-170200D01*
X-62800D01*
Y-170600D01*
X-62400Y-171000D01*
X-62800Y-171400D01*
Y-171800D01*
Y-181800D02*
X-62400D01*
X-62000Y-181400D01*
X-61600Y-181800D01*
X-61200D01*
Y-181400D01*
X-61600Y-181000D01*
X-61200Y-180600D01*
Y-180200D01*
X-61600D01*
X-62000Y-180600D01*
X-62400Y-180200D01*
X-62800D01*
Y-180600D01*
X-62400Y-181000D01*
X-62800Y-181400D01*
Y-181800D01*
X-52800Y-171800D02*
X-52400D01*
X-52000Y-171400D01*
X-51600Y-171800D01*
X-51200D01*
Y-171400D01*
X-51600Y-171000D01*
X-51200Y-170600D01*
Y-170200D01*
X-51600D01*
X-52000Y-170600D01*
X-52400Y-170200D01*
X-52800D01*
Y-170600D01*
X-52400Y-171000D01*
X-52800Y-171400D01*
Y-171800D01*
Y-181800D02*
X-52400D01*
X-52000Y-181400D01*
X-51600Y-181800D01*
X-51200D01*
Y-181400D01*
X-51600Y-181000D01*
X-51200Y-180600D01*
Y-180200D01*
X-51600D01*
X-52000Y-180600D01*
X-52400Y-180200D01*
X-52800D01*
Y-180600D01*
X-52400Y-181000D01*
X-52800Y-181400D01*
Y-181800D01*
X-42800Y-171800D02*
X-42400D01*
X-42000Y-171400D01*
X-41600Y-171800D01*
X-41200D01*
Y-171400D01*
X-41600Y-171000D01*
X-41200Y-170600D01*
Y-170200D01*
X-41600D01*
X-42000Y-170600D01*
X-42400Y-170200D01*
X-42800D01*
Y-170600D01*
X-42400Y-171000D01*
X-42800Y-171400D01*
Y-171800D01*
Y-181800D02*
X-42400D01*
X-42000Y-181400D01*
X-41600Y-181800D01*
X-41200D01*
Y-181400D01*
X-41600Y-181000D01*
X-41200Y-180600D01*
Y-180200D01*
X-41600D01*
X-42000Y-180600D01*
X-42400Y-180200D01*
X-42800D01*
Y-180600D01*
X-42400Y-181000D01*
X-42800Y-181400D01*
Y-181800D01*
X-32800Y-171800D02*
X-32400D01*
X-32000Y-171400D01*
X-31600Y-171800D01*
X-31200D01*
Y-171400D01*
X-31600Y-171000D01*
X-31200Y-170600D01*
Y-170200D01*
X-31600D01*
X-32000Y-170600D01*
X-32400Y-170200D01*
X-32800D01*
Y-170600D01*
X-32400Y-171000D01*
X-32800Y-171400D01*
Y-171800D01*
Y-181800D02*
X-32400D01*
X-32000Y-181400D01*
X-31600Y-181800D01*
X-31200D01*
Y-181400D01*
X-31600Y-181000D01*
X-31200Y-180600D01*
Y-180200D01*
X-31600D01*
X-32000Y-180600D01*
X-32400Y-180200D01*
X-32800D01*
Y-180600D01*
X-32400Y-181000D01*
X-32800Y-181400D01*
Y-181800D01*
X-22800Y-171800D02*
X-22400D01*
X-22000Y-171400D01*
X-21600Y-171800D01*
X-21200D01*
Y-171400D01*
X-21600Y-171000D01*
X-21200Y-170600D01*
Y-170200D01*
X-21600D01*
X-22000Y-170600D01*
X-22400Y-170200D01*
X-22800D01*
Y-170600D01*
X-22400Y-171000D01*
X-22800Y-171400D01*
Y-171800D01*
Y-181800D02*
X-22400D01*
X-22000Y-181400D01*
X-21600Y-181800D01*
X-21200D01*
Y-181400D01*
X-21600Y-181000D01*
X-21200Y-180600D01*
Y-180200D01*
X-21600D01*
X-22000Y-180600D01*
X-22400Y-180200D01*
X-22800D01*
Y-180600D01*
X-22400Y-181000D01*
X-22800Y-181400D01*
Y-181800D01*
X-12800Y-171800D02*
X-12400D01*
X-12000Y-171400D01*
X-11600Y-171800D01*
X-11200D01*
Y-171400D01*
X-11600Y-171000D01*
X-11200Y-170600D01*
Y-170200D01*
X-11600D01*
X-12000Y-170600D01*
X-12400Y-170200D01*
X-12800D01*
Y-170600D01*
X-12400Y-171000D01*
X-12800Y-171400D01*
Y-171800D01*
Y-181800D02*
X-12400D01*
X-12000Y-181400D01*
X-11600Y-181800D01*
X-11200D01*
Y-181400D01*
X-11600Y-181000D01*
X-11200Y-180600D01*
Y-180200D01*
X-11600D01*
X-12000Y-180600D01*
X-12400Y-180200D01*
X-12800D01*
Y-180600D01*
X-12400Y-181000D01*
X-12800Y-181400D01*
Y-181800D01*
X-2800Y-171800D02*
X-2400D01*
X-2000Y-171400D01*
X-1600Y-171800D01*
X-1200D01*
Y-171400D01*
X-1600Y-171000D01*
X-1200Y-170600D01*
Y-170200D01*
X-1600D01*
X-2000Y-170600D01*
X-2400Y-170200D01*
X-2800D01*
Y-170600D01*
X-2400Y-171000D01*
X-2800Y-171400D01*
Y-171800D01*
Y-181800D02*
X-2400D01*
X-2000Y-181400D01*
X-1600Y-181800D01*
X-1200D01*
Y-181400D01*
X-1600Y-181000D01*
X-1200Y-180600D01*
Y-180200D01*
X-1600D01*
X-2000Y-180600D01*
X-2400Y-180200D01*
X-2800D01*
Y-180600D01*
X-2400Y-181000D01*
X-2800Y-181400D01*
Y-181800D01*
X7200Y-171800D02*
X7600D01*
X8000Y-171400D01*
X8400Y-171800D01*
X8800D01*
Y-171400D01*
X8400Y-171000D01*
X8800Y-170600D01*
Y-170200D01*
X8400D01*
X8000Y-170600D01*
X7600Y-170200D01*
X7200D01*
Y-170600D01*
X7600Y-171000D01*
X7200Y-171400D01*
Y-171800D01*
Y-181800D02*
X7600D01*
X8000Y-181400D01*
X8400Y-181800D01*
X8800D01*
Y-181400D01*
X8400Y-181000D01*
X8800Y-180600D01*
Y-180200D01*
X8400D01*
X8000Y-180600D01*
X7600Y-180200D01*
X7200D01*
Y-180600D01*
X7600Y-181000D01*
X7200Y-181400D01*
Y-181800D01*
X17200Y-171800D02*
X17600D01*
X18000Y-171400D01*
X18400Y-171800D01*
X18800D01*
Y-171400D01*
X18400Y-171000D01*
X18800Y-170600D01*
Y-170200D01*
X18400D01*
X18000Y-170600D01*
X17600Y-170200D01*
X17200D01*
Y-170600D01*
X17600Y-171000D01*
X17200Y-171400D01*
Y-171800D01*
Y-181800D02*
X17600D01*
X18000Y-181400D01*
X18400Y-181800D01*
X18800D01*
Y-181400D01*
X18400Y-181000D01*
X18800Y-180600D01*
Y-180200D01*
X18400D01*
X18000Y-180600D01*
X17600Y-180200D01*
X17200D01*
Y-180600D01*
X17600Y-181000D01*
X17200Y-181400D01*
Y-181800D01*
X174200Y500D02*
X175000Y1300D01*
X175800Y500D01*
X175000Y-300D01*
X174200Y500D01*
X204200D02*
X205000Y1300D01*
X205800Y500D01*
X205000Y-300D01*
X204200Y500D01*
X174200Y60500D02*
X175000Y61300D01*
X175800Y60500D01*
X175000Y59700D01*
X174200Y60500D01*
X224200D02*
X225000Y61300D01*
X225800Y60500D01*
X225000Y59700D01*
X224200Y60500D01*
X-267115Y26192D02*
Y27792D01*
X-265515D01*
Y26192D01*
X-267115D01*
X-266715Y26592D02*
Y27392D01*
X-265915D01*
Y26592D01*
X-266715D01*
X-267115Y60208D02*
Y61808D01*
X-265515D01*
Y60208D01*
X-267115D01*
X-266715Y60608D02*
Y61408D01*
X-265915D01*
Y60608D01*
X-266715D01*
X-282075Y26192D02*
Y27792D01*
X-280475D01*
Y26192D01*
X-282075D01*
X-281675Y26592D02*
Y27392D01*
X-280875D01*
Y26592D01*
X-281675D01*
X-282075Y60208D02*
Y61808D01*
X-280475D01*
Y60208D01*
X-282075D01*
X-281675Y60608D02*
Y61408D01*
X-280875D01*
Y60608D01*
X-281675D01*
X134200Y-118300D02*
X134600D01*
X135000Y-117900D01*
X135400Y-118300D01*
X135800D01*
Y-117900D01*
X135400Y-117500D01*
X135800Y-117100D01*
Y-116700D01*
X135400D01*
X135000Y-117100D01*
X134600Y-116700D01*
X134200D01*
Y-117100D01*
X134600Y-117500D01*
X134200Y-117900D01*
Y-118300D01*
Y-108300D02*
X134600D01*
X135000Y-107900D01*
X135400Y-108300D01*
X135800D01*
Y-107900D01*
X135400Y-107500D01*
X135800Y-107100D01*
Y-106700D01*
X135400D01*
X135000Y-107100D01*
X134600Y-106700D01*
X134200D01*
Y-107100D01*
X134600Y-107500D01*
X134200Y-107900D01*
Y-108300D01*
Y-98300D02*
X134600D01*
X135000Y-97900D01*
X135400Y-98300D01*
X135800D01*
Y-97900D01*
X135400Y-97500D01*
X135800Y-97100D01*
Y-96700D01*
X135400D01*
X135000Y-97100D01*
X134600Y-96700D01*
X134200D01*
Y-97100D01*
X134600Y-97500D01*
X134200Y-97900D01*
Y-98300D01*
Y-88300D02*
X134600D01*
X135000Y-87900D01*
X135400Y-88300D01*
X135800D01*
Y-87900D01*
X135400Y-87500D01*
X135800Y-87100D01*
Y-86700D01*
X135400D01*
X135000Y-87100D01*
X134600Y-86700D01*
X134200D01*
Y-87100D01*
X134600Y-87500D01*
X134200Y-87900D01*
Y-88300D01*
Y-78300D02*
X134600D01*
X135000Y-77900D01*
X135400Y-78300D01*
X135800D01*
Y-77900D01*
X135400Y-77500D01*
X135800Y-77100D01*
Y-76700D01*
X135400D01*
X135000Y-77100D01*
X134600Y-76700D01*
X134200D01*
Y-77100D01*
X134600Y-77500D01*
X134200Y-77900D01*
Y-78300D01*
Y-68300D02*
X134600D01*
X135000Y-67900D01*
X135400Y-68300D01*
X135800D01*
Y-67900D01*
X135400Y-67500D01*
X135800Y-67100D01*
Y-66700D01*
X135400D01*
X135000Y-67100D01*
X134600Y-66700D01*
X134200D01*
Y-67100D01*
X134600Y-67500D01*
X134200Y-67900D01*
Y-68300D01*
X100500Y-144300D02*
X99700Y-142700D01*
X101300D01*
X100500Y-144300D01*
Y-143900D02*
X100100Y-143100D01*
X100900D01*
X100500Y-143900D01*
X100000Y-160800D02*
X99200Y-159200D01*
X100800D01*
X100000Y-160800D01*
Y-160400D02*
X99600Y-159600D01*
X100400D01*
X100000Y-160400D01*
X123500Y-129800D02*
X122700Y-128200D01*
X124300D01*
X123500Y-129800D01*
Y-129400D02*
X123100Y-128600D01*
X123900D01*
X123500Y-129400D01*
X-144000Y-147300D02*
X-144800Y-145700D01*
X-143200D01*
X-144000Y-147300D01*
Y-146900D02*
X-144400Y-146100D01*
X-143600D01*
X-144000Y-146900D01*
X-162000Y-154300D02*
X-162800Y-152700D01*
X-161200D01*
X-162000Y-154300D01*
Y-153900D02*
X-162400Y-153100D01*
X-161600D01*
X-162000Y-153900D01*
X-65500Y-116300D02*
X-66300Y-114700D01*
X-64700D01*
X-65500Y-116300D01*
Y-115900D02*
X-65900Y-115100D01*
X-65100D01*
X-65500Y-115900D01*
X-145500Y-80300D02*
X-146300Y-78700D01*
X-144700D01*
X-145500Y-80300D01*
Y-79900D02*
X-145900Y-79100D01*
X-145100D01*
X-145500Y-79900D01*
X72000Y-52300D02*
X71200Y-50700D01*
X72800D01*
X72000Y-52300D01*
Y-51900D02*
X71600Y-51100D01*
X72400D01*
X72000Y-51900D01*
X-152000Y-160800D02*
X-152800Y-159200D01*
X-151200D01*
X-152000Y-160800D01*
Y-160400D02*
X-152400Y-159600D01*
X-151600D01*
X-152000Y-160400D01*
D106*
X275800Y160000D02*
G03*
X275800Y160000I-800J0D01*
G01*
X276300Y-189500D02*
G03*
X276300Y-189500I-800J0D01*
G01*
X-273700D02*
G03*
X-273700Y-189500I-800J0D01*
G01*
Y159500D02*
G03*
X-273700Y159500I-800J0D01*
G01*
X98800Y60000D02*
G03*
X98800Y60000I-800J0D01*
G01*
X130300Y91000D02*
G03*
X130300Y91000I-800J0D01*
G01*
X118300Y96000D02*
G03*
X118300Y96000I-800J0D01*
G01*
X91800Y69500D02*
G03*
X91800Y69500I-800J0D01*
G01*
X193300Y81500D02*
G03*
X193300Y81500I-800J0D01*
G01*
X157300Y44000D02*
G03*
X157300Y44000I-800J0D01*
G01*
X-7200Y-138000D02*
G03*
X-7200Y-138000I-800J0D01*
G01*
X-41700Y-132000D02*
G03*
X-41700Y-132000I-800J0D01*
G01*
X-22700Y-110000D02*
G03*
X-22700Y-110000I-800J0D01*
G01*
X-42200Y-105500D02*
G03*
X-42200Y-105500I-800J0D01*
G01*
X276800Y138500D02*
G03*
X276800Y138500I-800J0D01*
G01*
X300Y141000D02*
G03*
X300Y141000I-800J0D01*
G01*
X18300Y-60433D02*
G03*
X18300Y-60433I-800J0D01*
G01*
X-142200Y-49500D02*
G03*
X-142200Y-49500I-800J0D01*
G01*
X56300Y-26000D02*
G03*
X56300Y-26000I-800J0D01*
G01*
X70800Y-20500D02*
G03*
X70800Y-20500I-800J0D01*
G01*
X16800Y-30000D02*
G03*
X16800Y-30000I-800J0D01*
G01*
X27300Y-28000D02*
G03*
X27300Y-28000I-800J0D01*
G01*
X17300Y-23000D02*
G03*
X17300Y-23000I-800J0D01*
G01*
X-101200Y145500D02*
G03*
X-101200Y145500I-800J0D01*
G01*
X90300Y122500D02*
G03*
X90300Y122500I-800J0D01*
G01*
X94300Y166500D02*
G03*
X94300Y166500I-800J0D01*
G01*
X254300Y-156000D02*
G03*
X254300Y-156000I-800J0D01*
G01*
X271800Y-27000D02*
G03*
X271800Y-27000I-800J0D01*
G01*
X198800Y-94000D02*
G03*
X198800Y-94000I-800J0D01*
G01*
X109800Y-193500D02*
G03*
X109800Y-193500I-800J0D01*
G01*
X164800D02*
G03*
X164800Y-193500I-800J0D01*
G01*
X220800Y40000D02*
G03*
X220800Y40000I-800J0D01*
G01*
X13300Y7500D02*
G03*
X13300Y7500I-800J0D01*
G01*
X-11200Y15500D02*
G03*
X-11200Y15500I-800J0D01*
G01*
X2800Y32500D02*
G03*
X2800Y32500I-800J0D01*
G01*
X11800Y53000D02*
G03*
X11800Y53000I-800J0D01*
G01*
X-12700Y57000D02*
G03*
X-12700Y57000I-800J0D01*
G01*
X61800Y-110500D02*
G03*
X61800Y-110500I-800J0D01*
G01*
X72800Y-99000D02*
G03*
X72800Y-99000I-800J0D01*
G01*
X114300Y-89500D02*
G03*
X114300Y-89500I-800J0D01*
G01*
X87300Y-156500D02*
G03*
X87300Y-156500I-800J0D01*
G01*
X66050Y-159250D02*
G03*
X66050Y-159250I-800J0D01*
G01*
X65800Y-153500D02*
G03*
X65800Y-153500I-800J0D01*
G01*
X97300Y-154500D02*
G03*
X97300Y-154500I-800J0D01*
G01*
X73300Y-156500D02*
G03*
X73300Y-156500I-800J0D01*
G01*
X48300Y-60433D02*
G03*
X48300Y-60433I-800J0D01*
G01*
X38300D02*
G03*
X38300Y-60433I-800J0D01*
G01*
X28300D02*
G03*
X28300Y-60433I-800J0D01*
G01*
X-11700Y-55118D02*
G03*
X-11700Y-55118I-800J0D01*
G01*
X-21700D02*
G03*
X-21700Y-55118I-800J0D01*
G01*
X-31700D02*
G03*
X-31700Y-55118I-800J0D01*
G01*
X-41700D02*
G03*
X-41700Y-55118I-800J0D01*
G01*
X-1700Y-58500D02*
G03*
X-1700Y-58500I-800J0D01*
G01*
X5800Y-34500D02*
G03*
X5800Y-34500I-800J0D01*
G01*
X230300Y-183000D02*
G03*
X230300Y-183000I-800J0D01*
G01*
X226300Y-119000D02*
G03*
X226300Y-119000I-800J0D01*
G01*
X259300Y-118000D02*
G03*
X259300Y-118000I-800J0D01*
G01*
X254800Y-70000D02*
G03*
X254800Y-70000I-800J0D01*
G01*
X216300Y-57000D02*
G03*
X216300Y-57000I-800J0D01*
G01*
X225800Y-32500D02*
G03*
X225800Y-32500I-800J0D01*
G01*
X259300Y12000D02*
G03*
X259300Y12000I-800J0D01*
G01*
X189800Y127500D02*
G03*
X189800Y127500I-800J0D01*
G01*
X194300Y162000D02*
G03*
X194300Y162000I-800J0D01*
G01*
X279800Y110000D02*
G03*
X279800Y110000I-800J0D01*
G01*
X272800Y53500D02*
G03*
X272800Y53500I-800J0D01*
G01*
X228800Y6500D02*
G03*
X228800Y6500I-800J0D01*
G01*
X203800Y21500D02*
G03*
X203800Y21500I-800J0D01*
G01*
X147800Y-11500D02*
G03*
X147800Y-11500I-800J0D01*
G01*
X122300Y-17500D02*
G03*
X122300Y-17500I-800J0D01*
G01*
X88800Y-16500D02*
G03*
X88800Y-16500I-800J0D01*
G01*
X95800Y144000D02*
G03*
X95800Y144000I-800J0D01*
G01*
X51800Y83000D02*
G03*
X51800Y83000I-800J0D01*
G01*
X-200Y157000D02*
G03*
X-200Y157000I-800J0D01*
G01*
X-51700Y84000D02*
G03*
X-51700Y84000I-800J0D01*
G01*
X-80700Y86000D02*
G03*
X-80700Y86000I-800J0D01*
G01*
X-87700Y133500D02*
G03*
X-87700Y133500I-800J0D01*
G01*
X-91200Y165500D02*
G03*
X-91200Y165500I-800J0D01*
G01*
X-190200Y145500D02*
G03*
X-190200Y145500I-800J0D01*
G01*
X-189200Y160500D02*
G03*
X-189200Y160500I-800J0D01*
G01*
X-276700Y126000D02*
G03*
X-276700Y126000I-800J0D01*
G01*
X-276200Y90000D02*
G03*
X-276200Y90000I-800J0D01*
G01*
X-259200Y75000D02*
G03*
X-259200Y75000I-800J0D01*
G01*
X-47200Y-21000D02*
G03*
X-47200Y-21000I-800J0D01*
G01*
X-66200Y-14000D02*
G03*
X-66200Y-14000I-800J0D01*
G01*
X-186700Y-48000D02*
G03*
X-186700Y-48000I-800J0D01*
G01*
X-97200Y-58500D02*
G03*
X-97200Y-58500I-800J0D01*
G01*
X-120200Y-26500D02*
G03*
X-120200Y-26500I-800J0D01*
G01*
X-164200Y-26000D02*
G03*
X-164200Y-26000I-800J0D01*
G01*
X-257700Y-2000D02*
G03*
X-257700Y-2000I-800J0D01*
G01*
X-239200Y-14000D02*
G03*
X-239200Y-14000I-800J0D01*
G01*
X-249700Y-44000D02*
G03*
X-249700Y-44000I-800J0D01*
G01*
X-255700Y-60500D02*
G03*
X-255700Y-60500I-800J0D01*
G01*
X-234700Y-92500D02*
G03*
X-234700Y-92500I-800J0D01*
G01*
X-265200Y-114500D02*
G03*
X-265200Y-114500I-800J0D01*
G01*
X-267700Y-149000D02*
G03*
X-267700Y-149000I-800J0D01*
G01*
X-240700Y33500D02*
G03*
X-240700Y33500I-800J0D01*
G01*
Y55000D02*
G03*
X-240700Y55000I-800J0D01*
G01*
X-132700Y-141500D02*
G03*
X-132700Y-141500I-800J0D01*
G01*
X-173200Y-114000D02*
G03*
X-173200Y-114000I-800J0D01*
G01*
X-85700Y-93500D02*
G03*
X-85700Y-93500I-800J0D01*
G01*
X-64700Y-86500D02*
G03*
X-64700Y-86500I-800J0D01*
G01*
X2300Y-89500D02*
G03*
X2300Y-89500I-800J0D01*
G01*
X6300Y-122500D02*
G03*
X6300Y-122500I-800J0D01*
G01*
X38800Y-111000D02*
G03*
X38800Y-111000I-800J0D01*
G01*
X95800Y-87500D02*
G03*
X95800Y-87500I-800J0D01*
G01*
X76300Y-75500D02*
G03*
X76300Y-75500I-800J0D01*
G01*
X130800Y-177500D02*
G03*
X130800Y-177500I-800J0D01*
G01*
X82800Y-173000D02*
G03*
X82800Y-173000I-800J0D01*
G01*
X48800Y-167000D02*
G03*
X48800Y-167000I-800J0D01*
G01*
X-26700Y-188500D02*
G03*
X-26700Y-188500I-800J0D01*
G01*
X-47200Y-198000D02*
G03*
X-47200Y-198000I-800J0D01*
G01*
X-61700D02*
G03*
X-61700Y-198000I-800J0D01*
G01*
X-95700Y-198500D02*
G03*
X-95700Y-198500I-800J0D01*
G01*
X-141700Y-200500D02*
G03*
X-141700Y-200500I-800J0D01*
G01*
X-216200Y-193000D02*
G03*
X-216200Y-193000I-800J0D01*
G01*
X-218200Y-148000D02*
G03*
X-218200Y-148000I-800J0D01*
G01*
X-78743Y-135550D02*
G03*
X-78743Y-135550I-800J0D01*
G01*
X110800Y-130500D02*
G03*
X110800Y-130500I-800J0D01*
G01*
X103800Y-133000D02*
G03*
X103800Y-133000I-800J0D01*
G01*
X40800Y-136500D02*
G03*
X40800Y-136500I-800J0D01*
G01*
X54300Y-139000D02*
G03*
X54300Y-139000I-800J0D01*
G01*
X-43979Y62480D02*
G03*
X-43979Y62480I-800J0D01*
G01*
X44969Y37150D02*
G03*
X44969Y37150I-800J0D01*
G01*
Y31020D02*
G03*
X44969Y31020I-800J0D01*
G01*
Y62480D02*
G03*
X44969Y62480I-800J0D01*
G01*
X51119Y59520D02*
G03*
X51119Y59520I-800J0D01*
G01*
X-10180Y86590D02*
G03*
X-10180Y86590I-800J0D01*
G01*
X-19700Y91000D02*
G03*
X-19700Y91000I-800J0D01*
G01*
X-13550Y108000D02*
G03*
X-13550Y108000I-800J0D01*
G01*
X-13400Y91000D02*
G03*
X-13400Y91000I-800J0D01*
G01*
X254800Y107500D02*
G03*
X254800Y107500I-800J0D01*
G01*
Y100500D02*
G03*
X254800Y100500I-800J0D01*
G01*
X197300Y105000D02*
G03*
X197300Y105000I-800J0D01*
G01*
X51119Y8900D02*
G03*
X51119Y8900I-800J0D01*
G01*
X203300Y105000D02*
G03*
X203300Y105000I-800J0D01*
G01*
X51119Y34000D02*
G03*
X51119Y34000I-800J0D01*
G01*
Y21500D02*
G03*
X51119Y21500I-800J0D01*
G01*
Y27800D02*
G03*
X51119Y27800I-800J0D01*
G01*
X170800Y102500D02*
G03*
X170800Y102500I-800J0D01*
G01*
X176300Y108500D02*
G03*
X176300Y108500I-800J0D01*
G01*
X113800Y115000D02*
G03*
X113800Y115000I-800J0D01*
G01*
X51229Y65571D02*
G03*
X51229Y65571I-800J0D01*
G01*
X120300Y115000D02*
G03*
X120300Y115000I-800J0D01*
G01*
X51119Y53000D02*
G03*
X51119Y53000I-800J0D01*
G01*
X-260200Y101312D02*
G03*
X-260200Y101312I-800J0D01*
G01*
X-249200Y97500D02*
G03*
X-249200Y97500I-800J0D01*
G01*
X-50269Y-3800D02*
G03*
X-50269Y-3800I-800J0D01*
G01*
X-194200Y99000D02*
G03*
X-194200Y99000I-800J0D01*
G01*
X-50269Y15200D02*
G03*
X-50269Y15200I-800J0D01*
G01*
X-198200Y94000D02*
G03*
X-198200Y94000I-800J0D01*
G01*
X-50269Y21500D02*
G03*
X-50269Y21500I-800J0D01*
G01*
X-179700Y102000D02*
G03*
X-179700Y102000I-800J0D01*
G01*
X-50269Y8800D02*
G03*
X-50269Y8800I-800J0D01*
G01*
Y2600D02*
G03*
X-50269Y2600I-800J0D01*
G01*
X-172200Y102000D02*
G03*
X-172200Y102000I-800J0D01*
G01*
X-50269Y27800D02*
G03*
X-50269Y27800I-800J0D01*
G01*
X-44048Y24621D02*
G03*
X-44048Y24621I-800J0D01*
G01*
Y37220D02*
G03*
X-44048Y37220I-800J0D01*
G01*
X-116200Y103500D02*
G03*
X-116200Y103500I-800J0D01*
G01*
X-120700Y98500D02*
G03*
X-120700Y98500I-800J0D01*
G01*
X-50200Y46700D02*
G03*
X-50200Y46700I-800J0D01*
G01*
Y53000D02*
G03*
X-50200Y53000I-800J0D01*
G01*
X-50269Y34100D02*
G03*
X-50269Y34100I-800J0D01*
G01*
Y40500D02*
G03*
X-50269Y40500I-800J0D01*
G01*
X-43979Y49821D02*
G03*
X-43979Y49821I-800J0D01*
G01*
X72300Y115500D02*
G03*
X72300Y115500I-800J0D01*
G01*
X67800Y112000D02*
G03*
X67800Y112000I-800J0D01*
G01*
X-7200Y91000D02*
G03*
X-7200Y91000I-800J0D01*
G01*
X2800Y108000D02*
G03*
X2800Y108000I-800J0D01*
G01*
X-800Y113000D02*
G03*
X-800Y113000I-800J0D01*
G01*
X-10200D02*
G03*
X-10200Y113000I-800J0D01*
G01*
X-69700Y108000D02*
G03*
X-69700Y108000I-800J0D01*
G01*
X-50200Y65500D02*
G03*
X-50200Y65500I-800J0D01*
G01*
X-65200Y103000D02*
G03*
X-65200Y103000I-800J0D01*
G01*
X-900Y91000D02*
G03*
X-900Y91000I-800J0D01*
G01*
X-4050Y86590D02*
G03*
X-4050Y86590I-800J0D01*
G01*
X-16550D02*
G03*
X-16550Y86590I-800J0D01*
G01*
X45079Y18320D02*
G03*
X45079Y18320I-800J0D01*
G01*
X51229Y15171D02*
G03*
X51229Y15171I-800J0D01*
G01*
X44969Y12050D02*
G03*
X44969Y12050I-800J0D01*
G01*
X51119Y2600D02*
G03*
X51119Y2600I-800J0D01*
G01*
X44969Y5750D02*
G03*
X44969Y5750I-800J0D01*
G01*
X51119Y-3700D02*
G03*
X51119Y-3700I-800J0D01*
G01*
X44969Y-550D02*
G03*
X44969Y-550I-800J0D01*
G01*
X45079Y43521D02*
G03*
X45079Y43521I-800J0D01*
G01*
X51229Y40471D02*
G03*
X51229Y40471I-800J0D01*
G01*
X44969Y24650D02*
G03*
X44969Y24650I-800J0D01*
G01*
Y49750D02*
G03*
X44969Y49750I-800J0D01*
G01*
X51119Y46700D02*
G03*
X51119Y46700I-800J0D01*
G01*
X44969Y56150D02*
G03*
X44969Y56150I-800J0D01*
G01*
X45079Y68721D02*
G03*
X45079Y68721I-800J0D01*
G01*
X-44048Y18320D02*
G03*
X-44048Y18320I-800J0D01*
G01*
Y11920D02*
G03*
X-44048Y11920I-800J0D01*
G01*
Y5720D02*
G03*
X-44048Y5720I-800J0D01*
G01*
Y-679D02*
G03*
X-44048Y-679I-800J0D01*
G01*
Y43620D02*
G03*
X-44048Y43620I-800J0D01*
G01*
Y31021D02*
G03*
X-44048Y31021I-800J0D01*
G01*
X-43979Y56221D02*
G03*
X-43979Y56221I-800J0D01*
G01*
X-50200Y59200D02*
G03*
X-50200Y59200I-800J0D01*
G01*
X-43979Y68721D02*
G03*
X-43979Y68721I-800J0D01*
G01*
X5528Y91000D02*
G03*
X5528Y91000I-800J0D01*
G01*
X24400D02*
G03*
X24400Y91000I-800J0D01*
G01*
X18100D02*
G03*
X18100Y91000I-800J0D01*
G01*
X14950Y86590D02*
G03*
X14950Y86590I-800J0D01*
G01*
X11800Y91000D02*
G03*
X11800Y91000I-800J0D01*
G01*
X21150Y86590D02*
G03*
X21150Y86590I-800J0D01*
G01*
X-22822Y86878D02*
G03*
X-22822Y86878I-800J0D01*
G01*
X2378D02*
G03*
X2378Y86878I-800J0D01*
G01*
X8650Y86590D02*
G03*
X8650Y86590I-800J0D01*
G01*
X33300Y-57500D02*
G03*
X33300Y-57500I-800J0D01*
G01*
X5500Y-27000D02*
G03*
X5500Y-27000I-800J0D01*
G01*
X23300Y-57700D02*
G03*
X23300Y-57700I-800J0D01*
G01*
X13300Y-58000D02*
G03*
X13300Y-58000I-800J0D01*
G01*
X-13500Y-27000D02*
G03*
X-13500Y-27000I-800J0D01*
G01*
X-7000D02*
G03*
X-7000Y-27000I-800J0D01*
G01*
X65300Y-36000D02*
G03*
X65300Y-36000I-800J0D01*
G01*
X43300Y-58000D02*
G03*
X43300Y-58000I-800J0D01*
G01*
X-16700Y-58500D02*
G03*
X-16700Y-58500I-800J0D01*
G01*
X-26700D02*
G03*
X-26700Y-58500I-800J0D01*
G01*
X-19700Y-27000D02*
G03*
X-19700Y-27000I-800J0D01*
G01*
X-36700Y-58000D02*
G03*
X-36700Y-58000I-800J0D01*
G01*
X-46700D02*
G03*
X-46700Y-58000I-800J0D01*
G01*
X-171546Y-146653D02*
G03*
X-171546Y-146653I-800J0D01*
G01*
X-168200Y-132500D02*
G03*
X-168200Y-132500I-800J0D01*
G01*
X-187200D02*
G03*
X-187200Y-132500I-800J0D01*
G01*
X13300Y-107500D02*
G03*
X13300Y-107500I-800J0D01*
G01*
X29800D02*
G03*
X29800Y-107500I-800J0D01*
G01*
X22800D02*
G03*
X22800Y-107500I-800J0D01*
G01*
X48300Y-100000D02*
G03*
X48300Y-100000I-800J0D01*
G01*
X38300D02*
G03*
X38300Y-100000I-800J0D01*
G01*
X28300D02*
G03*
X28300Y-100000I-800J0D01*
G01*
X18300D02*
G03*
X18300Y-100000I-800J0D01*
G01*
X-26700Y-103500D02*
G03*
X-26700Y-103500I-800J0D01*
G01*
X-11700Y-100000D02*
G03*
X-11700Y-100000I-800J0D01*
G01*
X-21700D02*
G03*
X-21700Y-100000I-800J0D01*
G01*
X-31700D02*
G03*
X-31700Y-100000I-800J0D01*
G01*
X-41700D02*
G03*
X-41700Y-100000I-800J0D01*
G01*
X35800Y-147000D02*
G03*
X35800Y-147000I-800J0D01*
G01*
X30300Y-162500D02*
G03*
X30300Y-162500I-800J0D01*
G01*
X-23200Y-135000D02*
G03*
X-23200Y-135000I-800J0D01*
G01*
X-36700Y-121500D02*
G03*
X-36700Y-121500I-800J0D01*
G01*
X-69200Y-132000D02*
G03*
X-69200Y-132000I-800J0D01*
G01*
X-60200D02*
G03*
X-60200Y-132000I-800J0D01*
G01*
X8600Y-22000D02*
G03*
X8600Y-22000I-800J0D01*
G01*
X-16561D02*
G03*
X-16561Y-22000I-800J0D01*
G01*
X-10261D02*
G03*
X-10261Y-22000I-800J0D01*
G01*
X-22761D02*
G03*
X-22761Y-22000I-800J0D01*
G01*
D107*
X98400Y60000D02*
G03*
X98400Y60000I-400J0D01*
G01*
X129900Y91000D02*
G03*
X129900Y91000I-400J0D01*
G01*
X117900Y96000D02*
G03*
X117900Y96000I-400J0D01*
G01*
X91400Y69500D02*
G03*
X91400Y69500I-400J0D01*
G01*
X192900Y81500D02*
G03*
X192900Y81500I-400J0D01*
G01*
X156900Y44000D02*
G03*
X156900Y44000I-400J0D01*
G01*
X-7600Y-138000D02*
G03*
X-7600Y-138000I-400J0D01*
G01*
X-42100Y-132000D02*
G03*
X-42100Y-132000I-400J0D01*
G01*
X-23100Y-110000D02*
G03*
X-23100Y-110000I-400J0D01*
G01*
X-42600Y-105500D02*
G03*
X-42600Y-105500I-400J0D01*
G01*
X276400Y138500D02*
G03*
X276400Y138500I-400J0D01*
G01*
X-100Y141000D02*
G03*
X-100Y141000I-400J0D01*
G01*
X17900Y-60433D02*
G03*
X17900Y-60433I-400J0D01*
G01*
X-142600Y-49500D02*
G03*
X-142600Y-49500I-400J0D01*
G01*
X55900Y-26000D02*
G03*
X55900Y-26000I-400J0D01*
G01*
X70400Y-20500D02*
G03*
X70400Y-20500I-400J0D01*
G01*
X16400Y-30000D02*
G03*
X16400Y-30000I-400J0D01*
G01*
X26900Y-28000D02*
G03*
X26900Y-28000I-400J0D01*
G01*
X16900Y-23000D02*
G03*
X16900Y-23000I-400J0D01*
G01*
X-101600Y145500D02*
G03*
X-101600Y145500I-400J0D01*
G01*
X89900Y122500D02*
G03*
X89900Y122500I-400J0D01*
G01*
X93900Y166500D02*
G03*
X93900Y166500I-400J0D01*
G01*
X253900Y-156000D02*
G03*
X253900Y-156000I-400J0D01*
G01*
X271400Y-27000D02*
G03*
X271400Y-27000I-400J0D01*
G01*
X198400Y-94000D02*
G03*
X198400Y-94000I-400J0D01*
G01*
X109400Y-193500D02*
G03*
X109400Y-193500I-400J0D01*
G01*
X164400D02*
G03*
X164400Y-193500I-400J0D01*
G01*
X220400Y40000D02*
G03*
X220400Y40000I-400J0D01*
G01*
X12900Y7500D02*
G03*
X12900Y7500I-400J0D01*
G01*
X-11600Y15500D02*
G03*
X-11600Y15500I-400J0D01*
G01*
X2400Y32500D02*
G03*
X2400Y32500I-400J0D01*
G01*
X11400Y53000D02*
G03*
X11400Y53000I-400J0D01*
G01*
X-13100Y57000D02*
G03*
X-13100Y57000I-400J0D01*
G01*
X61400Y-110500D02*
G03*
X61400Y-110500I-400J0D01*
G01*
X72400Y-99000D02*
G03*
X72400Y-99000I-400J0D01*
G01*
X113900Y-89500D02*
G03*
X113900Y-89500I-400J0D01*
G01*
X86900Y-156500D02*
G03*
X86900Y-156500I-400J0D01*
G01*
X65650Y-159250D02*
G03*
X65650Y-159250I-400J0D01*
G01*
X65400Y-153500D02*
G03*
X65400Y-153500I-400J0D01*
G01*
X96900Y-154500D02*
G03*
X96900Y-154500I-400J0D01*
G01*
X72900Y-156500D02*
G03*
X72900Y-156500I-400J0D01*
G01*
X47900Y-60433D02*
G03*
X47900Y-60433I-400J0D01*
G01*
X37900D02*
G03*
X37900Y-60433I-400J0D01*
G01*
X27900D02*
G03*
X27900Y-60433I-400J0D01*
G01*
X-12100Y-55118D02*
G03*
X-12100Y-55118I-400J0D01*
G01*
X-22100D02*
G03*
X-22100Y-55118I-400J0D01*
G01*
X-32100D02*
G03*
X-32100Y-55118I-400J0D01*
G01*
X-42100D02*
G03*
X-42100Y-55118I-400J0D01*
G01*
X-2100Y-58500D02*
G03*
X-2100Y-58500I-400J0D01*
G01*
X5400Y-34500D02*
G03*
X5400Y-34500I-400J0D01*
G01*
X229900Y-183000D02*
G03*
X229900Y-183000I-400J0D01*
G01*
X225900Y-119000D02*
G03*
X225900Y-119000I-400J0D01*
G01*
X258900Y-118000D02*
G03*
X258900Y-118000I-400J0D01*
G01*
X254400Y-70000D02*
G03*
X254400Y-70000I-400J0D01*
G01*
X215900Y-57000D02*
G03*
X215900Y-57000I-400J0D01*
G01*
X225400Y-32500D02*
G03*
X225400Y-32500I-400J0D01*
G01*
X258900Y12000D02*
G03*
X258900Y12000I-400J0D01*
G01*
X189400Y127500D02*
G03*
X189400Y127500I-400J0D01*
G01*
X193900Y162000D02*
G03*
X193900Y162000I-400J0D01*
G01*
X279400Y110000D02*
G03*
X279400Y110000I-400J0D01*
G01*
X272400Y53500D02*
G03*
X272400Y53500I-400J0D01*
G01*
X228400Y6500D02*
G03*
X228400Y6500I-400J0D01*
G01*
X203400Y21500D02*
G03*
X203400Y21500I-400J0D01*
G01*
X147400Y-11500D02*
G03*
X147400Y-11500I-400J0D01*
G01*
X121900Y-17500D02*
G03*
X121900Y-17500I-400J0D01*
G01*
X88400Y-16500D02*
G03*
X88400Y-16500I-400J0D01*
G01*
X95400Y144000D02*
G03*
X95400Y144000I-400J0D01*
G01*
X51400Y83000D02*
G03*
X51400Y83000I-400J0D01*
G01*
X-600Y157000D02*
G03*
X-600Y157000I-400J0D01*
G01*
X-52100Y84000D02*
G03*
X-52100Y84000I-400J0D01*
G01*
X-81100Y86000D02*
G03*
X-81100Y86000I-400J0D01*
G01*
X-88100Y133500D02*
G03*
X-88100Y133500I-400J0D01*
G01*
X-91600Y165500D02*
G03*
X-91600Y165500I-400J0D01*
G01*
X-190600Y145500D02*
G03*
X-190600Y145500I-400J0D01*
G01*
X-189600Y160500D02*
G03*
X-189600Y160500I-400J0D01*
G01*
X-277100Y126000D02*
G03*
X-277100Y126000I-400J0D01*
G01*
X-276600Y90000D02*
G03*
X-276600Y90000I-400J0D01*
G01*
X-259600Y75000D02*
G03*
X-259600Y75000I-400J0D01*
G01*
X-47600Y-21000D02*
G03*
X-47600Y-21000I-400J0D01*
G01*
X-66600Y-14000D02*
G03*
X-66600Y-14000I-400J0D01*
G01*
X-187100Y-48000D02*
G03*
X-187100Y-48000I-400J0D01*
G01*
X-97600Y-58500D02*
G03*
X-97600Y-58500I-400J0D01*
G01*
X-120600Y-26500D02*
G03*
X-120600Y-26500I-400J0D01*
G01*
X-164600Y-26000D02*
G03*
X-164600Y-26000I-400J0D01*
G01*
X-258100Y-2000D02*
G03*
X-258100Y-2000I-400J0D01*
G01*
X-239600Y-14000D02*
G03*
X-239600Y-14000I-400J0D01*
G01*
X-250100Y-44000D02*
G03*
X-250100Y-44000I-400J0D01*
G01*
X-256100Y-60500D02*
G03*
X-256100Y-60500I-400J0D01*
G01*
X-235100Y-92500D02*
G03*
X-235100Y-92500I-400J0D01*
G01*
X-265600Y-114500D02*
G03*
X-265600Y-114500I-400J0D01*
G01*
X-268100Y-149000D02*
G03*
X-268100Y-149000I-400J0D01*
G01*
X-241100Y33500D02*
G03*
X-241100Y33500I-400J0D01*
G01*
Y55000D02*
G03*
X-241100Y55000I-400J0D01*
G01*
X-133100Y-141500D02*
G03*
X-133100Y-141500I-400J0D01*
G01*
X-173600Y-114000D02*
G03*
X-173600Y-114000I-400J0D01*
G01*
X-86100Y-93500D02*
G03*
X-86100Y-93500I-400J0D01*
G01*
X-65100Y-86500D02*
G03*
X-65100Y-86500I-400J0D01*
G01*
X1900Y-89500D02*
G03*
X1900Y-89500I-400J0D01*
G01*
X5900Y-122500D02*
G03*
X5900Y-122500I-400J0D01*
G01*
X38400Y-111000D02*
G03*
X38400Y-111000I-400J0D01*
G01*
X95400Y-87500D02*
G03*
X95400Y-87500I-400J0D01*
G01*
X75900Y-75500D02*
G03*
X75900Y-75500I-400J0D01*
G01*
X130400Y-177500D02*
G03*
X130400Y-177500I-400J0D01*
G01*
X82400Y-173000D02*
G03*
X82400Y-173000I-400J0D01*
G01*
X48400Y-167000D02*
G03*
X48400Y-167000I-400J0D01*
G01*
X-27100Y-188500D02*
G03*
X-27100Y-188500I-400J0D01*
G01*
X-47600Y-198000D02*
G03*
X-47600Y-198000I-400J0D01*
G01*
X-62100D02*
G03*
X-62100Y-198000I-400J0D01*
G01*
X-96100Y-198500D02*
G03*
X-96100Y-198500I-400J0D01*
G01*
X-142100Y-200500D02*
G03*
X-142100Y-200500I-400J0D01*
G01*
X-216600Y-193000D02*
G03*
X-216600Y-193000I-400J0D01*
G01*
X-218600Y-148000D02*
G03*
X-218600Y-148000I-400J0D01*
G01*
X-79143Y-135550D02*
G03*
X-79143Y-135550I-400J0D01*
G01*
X110400Y-130500D02*
G03*
X110400Y-130500I-400J0D01*
G01*
X103400Y-133000D02*
G03*
X103400Y-133000I-400J0D01*
G01*
X40400Y-136500D02*
G03*
X40400Y-136500I-400J0D01*
G01*
X53900Y-139000D02*
G03*
X53900Y-139000I-400J0D01*
G01*
X-44379Y62480D02*
G03*
X-44379Y62480I-400J0D01*
G01*
X44569Y37150D02*
G03*
X44569Y37150I-400J0D01*
G01*
Y31020D02*
G03*
X44569Y31020I-400J0D01*
G01*
Y62480D02*
G03*
X44569Y62480I-400J0D01*
G01*
X50719Y59520D02*
G03*
X50719Y59520I-400J0D01*
G01*
X-10580Y86590D02*
G03*
X-10580Y86590I-400J0D01*
G01*
X-20100Y91000D02*
G03*
X-20100Y91000I-400J0D01*
G01*
X-13950Y108000D02*
G03*
X-13950Y108000I-400J0D01*
G01*
X-13800Y91000D02*
G03*
X-13800Y91000I-400J0D01*
G01*
X254400Y107500D02*
G03*
X254400Y107500I-400J0D01*
G01*
Y100500D02*
G03*
X254400Y100500I-400J0D01*
G01*
X196900Y105000D02*
G03*
X196900Y105000I-400J0D01*
G01*
X50719Y8900D02*
G03*
X50719Y8900I-400J0D01*
G01*
X202900Y105000D02*
G03*
X202900Y105000I-400J0D01*
G01*
X50719Y34000D02*
G03*
X50719Y34000I-400J0D01*
G01*
Y21500D02*
G03*
X50719Y21500I-400J0D01*
G01*
Y27800D02*
G03*
X50719Y27800I-400J0D01*
G01*
X170400Y102500D02*
G03*
X170400Y102500I-400J0D01*
G01*
X175900Y108500D02*
G03*
X175900Y108500I-400J0D01*
G01*
X113400Y115000D02*
G03*
X113400Y115000I-400J0D01*
G01*
X50829Y65571D02*
G03*
X50829Y65571I-400J0D01*
G01*
X119900Y115000D02*
G03*
X119900Y115000I-400J0D01*
G01*
X50719Y53000D02*
G03*
X50719Y53000I-400J0D01*
G01*
X-260600Y101312D02*
G03*
X-260600Y101312I-400J0D01*
G01*
X-249600Y97500D02*
G03*
X-249600Y97500I-400J0D01*
G01*
X-50669Y-3800D02*
G03*
X-50669Y-3800I-400J0D01*
G01*
X-194600Y99000D02*
G03*
X-194600Y99000I-400J0D01*
G01*
X-50669Y15200D02*
G03*
X-50669Y15200I-400J0D01*
G01*
X-198600Y94000D02*
G03*
X-198600Y94000I-400J0D01*
G01*
X-50669Y21500D02*
G03*
X-50669Y21500I-400J0D01*
G01*
X-180100Y102000D02*
G03*
X-180100Y102000I-400J0D01*
G01*
X-50669Y8800D02*
G03*
X-50669Y8800I-400J0D01*
G01*
Y2600D02*
G03*
X-50669Y2600I-400J0D01*
G01*
X-172600Y102000D02*
G03*
X-172600Y102000I-400J0D01*
G01*
X-50669Y27800D02*
G03*
X-50669Y27800I-400J0D01*
G01*
X-44448Y24621D02*
G03*
X-44448Y24621I-400J0D01*
G01*
Y37220D02*
G03*
X-44448Y37220I-400J0D01*
G01*
X-116600Y103500D02*
G03*
X-116600Y103500I-400J0D01*
G01*
X-121100Y98500D02*
G03*
X-121100Y98500I-400J0D01*
G01*
X-50600Y46700D02*
G03*
X-50600Y46700I-400J0D01*
G01*
Y53000D02*
G03*
X-50600Y53000I-400J0D01*
G01*
X-50669Y34100D02*
G03*
X-50669Y34100I-400J0D01*
G01*
Y40500D02*
G03*
X-50669Y40500I-400J0D01*
G01*
X-44379Y49821D02*
G03*
X-44379Y49821I-400J0D01*
G01*
X71900Y115500D02*
G03*
X71900Y115500I-400J0D01*
G01*
X67400Y112000D02*
G03*
X67400Y112000I-400J0D01*
G01*
X-7600Y91000D02*
G03*
X-7600Y91000I-400J0D01*
G01*
X2400Y108000D02*
G03*
X2400Y108000I-400J0D01*
G01*
X-1200Y113000D02*
G03*
X-1200Y113000I-400J0D01*
G01*
X-10600D02*
G03*
X-10600Y113000I-400J0D01*
G01*
X-70100Y108000D02*
G03*
X-70100Y108000I-400J0D01*
G01*
X-50600Y65500D02*
G03*
X-50600Y65500I-400J0D01*
G01*
X-65600Y103000D02*
G03*
X-65600Y103000I-400J0D01*
G01*
X-1300Y91000D02*
G03*
X-1300Y91000I-400J0D01*
G01*
X-4450Y86590D02*
G03*
X-4450Y86590I-400J0D01*
G01*
X-16950D02*
G03*
X-16950Y86590I-400J0D01*
G01*
X44679Y18320D02*
G03*
X44679Y18320I-400J0D01*
G01*
X50829Y15171D02*
G03*
X50829Y15171I-400J0D01*
G01*
X44569Y12050D02*
G03*
X44569Y12050I-400J0D01*
G01*
X50719Y2600D02*
G03*
X50719Y2600I-400J0D01*
G01*
X44569Y5750D02*
G03*
X44569Y5750I-400J0D01*
G01*
X50719Y-3700D02*
G03*
X50719Y-3700I-400J0D01*
G01*
X44569Y-550D02*
G03*
X44569Y-550I-400J0D01*
G01*
X44679Y43521D02*
G03*
X44679Y43521I-400J0D01*
G01*
X50829Y40471D02*
G03*
X50829Y40471I-400J0D01*
G01*
X44569Y24650D02*
G03*
X44569Y24650I-400J0D01*
G01*
Y49750D02*
G03*
X44569Y49750I-400J0D01*
G01*
X50719Y46700D02*
G03*
X50719Y46700I-400J0D01*
G01*
X44569Y56150D02*
G03*
X44569Y56150I-400J0D01*
G01*
X44679Y68721D02*
G03*
X44679Y68721I-400J0D01*
G01*
X-44448Y18320D02*
G03*
X-44448Y18320I-400J0D01*
G01*
Y11920D02*
G03*
X-44448Y11920I-400J0D01*
G01*
Y5720D02*
G03*
X-44448Y5720I-400J0D01*
G01*
Y-679D02*
G03*
X-44448Y-679I-400J0D01*
G01*
Y43620D02*
G03*
X-44448Y43620I-400J0D01*
G01*
Y31021D02*
G03*
X-44448Y31021I-400J0D01*
G01*
X-44379Y56221D02*
G03*
X-44379Y56221I-400J0D01*
G01*
X-50600Y59200D02*
G03*
X-50600Y59200I-400J0D01*
G01*
X-44379Y68721D02*
G03*
X-44379Y68721I-400J0D01*
G01*
X5128Y91000D02*
G03*
X5128Y91000I-400J0D01*
G01*
X24000D02*
G03*
X24000Y91000I-400J0D01*
G01*
X17700D02*
G03*
X17700Y91000I-400J0D01*
G01*
X14550Y86590D02*
G03*
X14550Y86590I-400J0D01*
G01*
X11400Y91000D02*
G03*
X11400Y91000I-400J0D01*
G01*
X20750Y86590D02*
G03*
X20750Y86590I-400J0D01*
G01*
X-23222Y86878D02*
G03*
X-23222Y86878I-400J0D01*
G01*
X1978D02*
G03*
X1978Y86878I-400J0D01*
G01*
X8250Y86590D02*
G03*
X8250Y86590I-400J0D01*
G01*
X32900Y-57500D02*
G03*
X32900Y-57500I-400J0D01*
G01*
X5100Y-27000D02*
G03*
X5100Y-27000I-400J0D01*
G01*
X22900Y-57700D02*
G03*
X22900Y-57700I-400J0D01*
G01*
X12900Y-58000D02*
G03*
X12900Y-58000I-400J0D01*
G01*
X-13900Y-27000D02*
G03*
X-13900Y-27000I-400J0D01*
G01*
X-7400D02*
G03*
X-7400Y-27000I-400J0D01*
G01*
X64900Y-36000D02*
G03*
X64900Y-36000I-400J0D01*
G01*
X42900Y-58000D02*
G03*
X42900Y-58000I-400J0D01*
G01*
X-17100Y-58500D02*
G03*
X-17100Y-58500I-400J0D01*
G01*
X-27100D02*
G03*
X-27100Y-58500I-400J0D01*
G01*
X-20100Y-27000D02*
G03*
X-20100Y-27000I-400J0D01*
G01*
X-37100Y-58000D02*
G03*
X-37100Y-58000I-400J0D01*
G01*
X-47100D02*
G03*
X-47100Y-58000I-400J0D01*
G01*
X-171947Y-146653D02*
G03*
X-171947Y-146653I-400J0D01*
G01*
X-168600Y-132500D02*
G03*
X-168600Y-132500I-400J0D01*
G01*
X-187600D02*
G03*
X-187600Y-132500I-400J0D01*
G01*
X12900Y-107500D02*
G03*
X12900Y-107500I-400J0D01*
G01*
X29400D02*
G03*
X29400Y-107500I-400J0D01*
G01*
X22400D02*
G03*
X22400Y-107500I-400J0D01*
G01*
X47900Y-100000D02*
G03*
X47900Y-100000I-400J0D01*
G01*
X37900D02*
G03*
X37900Y-100000I-400J0D01*
G01*
X27900D02*
G03*
X27900Y-100000I-400J0D01*
G01*
X17900D02*
G03*
X17900Y-100000I-400J0D01*
G01*
X-27100Y-103500D02*
G03*
X-27100Y-103500I-400J0D01*
G01*
X-12100Y-100000D02*
G03*
X-12100Y-100000I-400J0D01*
G01*
X-22100D02*
G03*
X-22100Y-100000I-400J0D01*
G01*
X-32100D02*
G03*
X-32100Y-100000I-400J0D01*
G01*
X-42100D02*
G03*
X-42100Y-100000I-400J0D01*
G01*
X35400Y-147000D02*
G03*
X35400Y-147000I-400J0D01*
G01*
X29900Y-162500D02*
G03*
X29900Y-162500I-400J0D01*
G01*
X-23600Y-135000D02*
G03*
X-23600Y-135000I-400J0D01*
G01*
X-37100Y-121500D02*
G03*
X-37100Y-121500I-400J0D01*
G01*
X-69600Y-132000D02*
G03*
X-69600Y-132000I-400J0D01*
G01*
X-60600D02*
G03*
X-60600Y-132000I-400J0D01*
G01*
X8200Y-22000D02*
G03*
X8200Y-22000I-400J0D01*
G01*
X-16961D02*
G03*
X-16961Y-22000I-400J0D01*
G01*
X-10661D02*
G03*
X-10661Y-22000I-400J0D01*
G01*
X-23161D02*
G03*
X-23161Y-22000I-400J0D01*
G01*
M02*
