G04*
G04 #@! TF.GenerationSoftware,Altium Limited,Altium Designer,20.0.9 (164)*
G04*
G04 Layer_Color=32896*
%FSLAX25Y25*%
%MOIN*%
G70*
G01*
G75*
%ADD10C,0.01000*%
%ADD12C,0.00600*%
%ADD13C,0.00787*%
%ADD101C,0.00800*%
D10*
X173201Y-129402D02*
X174201Y-128402D01*
X176200D01*
X177200Y-129402D01*
Y-130401D01*
X176200Y-131401D01*
X174201D01*
X173201Y-132401D01*
Y-133400D01*
X174201Y-134400D01*
X176200D01*
X177200Y-133400D01*
X171202Y-134400D02*
X169203D01*
X170202D01*
Y-128402D01*
X171202Y-129402D01*
X15998Y-125999D02*
Y-120001D01*
X12999D01*
X11999Y-121001D01*
Y-123000D01*
X12999Y-124000D01*
X15998D01*
X13998D02*
X11999Y-125999D01*
X10000D02*
X8000D01*
X9000D01*
Y-120001D01*
X10000Y-121001D01*
X5001D02*
X4001Y-120001D01*
X2002D01*
X1002Y-121001D01*
Y-122000D01*
X2002Y-123000D01*
X1002Y-124000D01*
Y-124999D01*
X2002Y-125999D01*
X4001D01*
X5001Y-124999D01*
Y-124000D01*
X4001Y-123000D01*
X5001Y-122000D01*
Y-121001D01*
X4001Y-123000D02*
X2002D01*
X-3502Y-126499D02*
Y-120501D01*
X-6502D01*
X-7501Y-121501D01*
Y-123500D01*
X-6502Y-124500D01*
X-3502D01*
X-5502D02*
X-7501Y-126499D01*
X-9500D02*
X-11500D01*
X-10500D01*
Y-120501D01*
X-9500Y-121501D01*
X-14499D02*
X-15499Y-120501D01*
X-17498D01*
X-18498Y-121501D01*
Y-122500D01*
X-17498Y-123500D01*
X-16498D01*
X-17498D01*
X-18498Y-124500D01*
Y-125499D01*
X-17498Y-126499D01*
X-15499D01*
X-14499Y-125499D01*
X51499Y-127002D02*
X45501D01*
Y-130001D01*
X46501Y-131001D01*
X48500D01*
X49500Y-130001D01*
Y-127002D01*
Y-129002D02*
X51499Y-131001D01*
Y-133001D02*
Y-135000D01*
Y-134000D01*
X45501D01*
X46501Y-133001D01*
Y-137999D02*
X45501Y-138999D01*
Y-140998D01*
X46501Y-141998D01*
X50499D01*
X51499Y-140998D01*
Y-138999D01*
X50499Y-137999D01*
X46501D01*
X-173800Y-162600D02*
Y-156602D01*
X-176799D01*
X-177799Y-157602D01*
Y-159601D01*
X-176799Y-160601D01*
X-173800D01*
X-179798Y-162600D02*
X-181797D01*
X-180798D01*
Y-156602D01*
X-179798Y-157602D01*
D12*
X7200Y-117853D02*
Y-112953D01*
X1800Y-117853D02*
X7200D01*
X1800D02*
Y-112953D01*
X7200Y-110453D02*
Y-105454D01*
X1800D02*
X7200D01*
X1800Y-110453D02*
Y-105454D01*
X-2800Y-117853D02*
Y-112953D01*
X-8200Y-117853D02*
X-2800D01*
X-8200D02*
Y-112953D01*
X-2800Y-110453D02*
Y-105454D01*
X-8200D02*
X-2800D01*
X-8200Y-110453D02*
Y-105454D01*
X46700Y-148700D02*
Y-143800D01*
X52100D01*
Y-148700D02*
Y-143800D01*
X46700Y-156200D02*
Y-151200D01*
Y-156200D02*
X52100D01*
Y-151200D01*
D13*
X23000Y-186000D02*
Y-166000D01*
X-177000Y-186000D02*
Y-166000D01*
Y-186000D02*
X23000D01*
X-177000Y-166000D02*
X23000D01*
D101*
X32000Y-165168D02*
X31334Y-164501D01*
X30001D01*
X29334Y-165168D01*
Y-165834D01*
X30001Y-166501D01*
X30667D01*
X30001D01*
X29334Y-167167D01*
Y-167833D01*
X30001Y-168500D01*
X31334D01*
X32000Y-167833D01*
X28001D02*
X27335Y-168500D01*
X26002D01*
X25335Y-167833D01*
Y-165168D01*
X26002Y-164501D01*
X27335D01*
X28001Y-165168D01*
Y-165834D01*
X27335Y-166501D01*
X25335D01*
X29501Y-187000D02*
Y-183001D01*
X31500Y-185001D01*
X28834D01*
X27501Y-183668D02*
X26835Y-183001D01*
X25502D01*
X24836Y-183668D01*
Y-186334D01*
X25502Y-187000D01*
X26835D01*
X27501Y-186334D01*
Y-183668D01*
X-182166Y-184000D02*
X-179500D01*
X-182166Y-181334D01*
Y-180668D01*
X-181499Y-180001D01*
X-180166D01*
X-179500Y-180668D01*
Y-172000D02*
X-180833D01*
X-180166D01*
Y-168001D01*
X-179500Y-168668D01*
M02*
